<svg xmlns="http://www.w3.org/2000/svg" xmlns:xlink="http://www.w3.org/1999/xlink" xmlns:lucid="lucid" width="504" height="519"><g transform="translate(-1188 -77)" lucid:page-tab-id="0_0"><path d="M0 0h1760v1360H0z" fill="#fff"/><path d="M1230 116a6 6 0 0 1 6-6h428a6 6 0 0 1 6 6v447.67a6 6 0 0 1-6 6h-428a6 6 0 0 1-6-6z" stroke="#008573" stroke-width="3" fill="#008573"/><use xlink:href="#a" transform="matrix(1,0,0,1,1242,122) translate(173.49382716049382 17.77777777777778)"/><path d="M1220 106a6 6 0 0 1 6-6h428a6 6 0 0 1 6 6v448a6 6 0 0 1-6 6h-428a6 6 0 0 1-6-6z" stroke="#008573" stroke-width="3" fill="#fff"/><use xlink:href="#a" transform="matrix(1,0,0,1,1232,112) translate(173.49382716049382 17.77777777777778)"/><path d="M1250 161a6 6 0 0 1 6-6h168a6 6 0 0 1 6 6v362.67a6 6 0 0 1-6 6h-168a6 6 0 0 1-6-6z" stroke="#cc4e00" stroke-width="3" fill="#cc4e00"/><use xlink:href="#b" transform="matrix(1,0,0,1,1262,166.99999999999997) translate(30.5 17.77777777777778)"/><path d="M1240 151a6 6 0 0 1 6-6h168a6 6 0 0 1 6 6v363a6 6 0 0 1-6 6h-168a6 6 0 0 1-6-6z" stroke="#cc4e00" stroke-width="3" fill="#fff"/><use xlink:href="#c" transform="matrix(1,0,0,1,1252,156.99999999999997) translate(30.5 17.77777777777778)"/><use xlink:href="#d" transform="matrix(1,0,0,1,1252,156.99999999999997) translate(5.206790123456841 35.55555555555555)"/><use xlink:href="#e" transform="matrix(1,0,0,1,1252,156.99999999999997) translate(53.941358024691375 35.55555555555555)"/><use xlink:href="#f" transform="matrix(1,0,0,1,1252,156.99999999999997) translate(66.28703703703705 35.55555555555555)"/><use xlink:href="#g" transform="matrix(1,0,0,1,1252,156.99999999999997) translate(105.73148148148147 35.55555555555555)"/><use xlink:href="#h" transform="matrix(1,0,0,1,1252,156.99999999999997) translate(16.009259259259302 48.88888888888888)"/><use xlink:href="#i" transform="matrix(1,0,0,1,1252,156.99999999999997) translate(61.59567901234569 48.88888888888888)"/><use xlink:href="#j" transform="matrix(1,0,0,1,1252,156.99999999999997) translate(83.2006172839506 48.88888888888888)"/><path d="M1270 235.67a6 6 0 0 1 6-6h108a6 6 0 0 1 6 6v118.66a6 6 0 0 1-6 6h-108a6 6 0 0 1-6-6z" stroke="#ffe342" stroke-width="3" fill="#ffe342"/><use xlink:href="#k" transform="matrix(1,0,0,1,1282,241.66666666666669) translate(12.876543209876544 17.77777777777778)"/><use xlink:href="#l" transform="matrix(1,0,0,1,1282,241.66666666666669) translate(48 44.44444444444444)"/><path d="M1460 338.17a6 6 0 0 1 6-6h168a6 6 0 0 1 6 6v60.17a6 6 0 0 1-6 6h-168a6 6 0 0 1-6-6z" stroke="#e08fff" stroke-width="3" fill="#e08fff"/><use xlink:href="#m" transform="matrix(1,0,0,1,1472,344.1671408115606) translate(12.012345679012356 17.77777777777778)"/><use xlink:href="#n" transform="matrix(1,0,0,1,1472,344.1671408115606) translate(73.67901234567901 17.77777777777778)"/><path d="M1450 328.5a6 6 0 0 1 6-6h168a6 6 0 0 1 6 6v60.17a6 6 0 0 1-6 6h-168a6 6 0 0 1-6-6z" stroke="#e08fff" stroke-width="3" fill="#fff"/><use xlink:href="#m" transform="matrix(1,0,0,1,1462,334.49952585510596) translate(12.012345679012356 17.77777777777778)"/><use xlink:href="#o" transform="matrix(1,0,0,1,1462,334.49952585510596) translate(73.67901234567901 17.77777777777778)"/><use xlink:href="#p" transform="matrix(1,0,0,1,1462,334.49952585510596) translate(6.842592592592595 35.55555555555556)"/><use xlink:href="#q" transform="matrix(1,0,0,1,1462,334.49952585510596) translate(80.73148148148148 35.55555555555556)"/><use xlink:href="#r" transform="matrix(1,0,0,1,1462,334.49952585510596) translate(130.63888888888889 35.55555555555556)"/><use xlink:href="#s" transform="matrix(1,0,0,1,1462,334.49952585510596) translate(25.916666666666664 48.888888888888886)"/><use xlink:href="#t" transform="matrix(1,0,0,1,1462,334.49952585510596) translate(102.92283950617283 48.888888888888886)"/><path d="M1260 226a6 6 0 0 1 6-6h108a6 6 0 0 1 6 6v118.67a6 6 0 0 1-6 6h-108a6 6 0 0 1-6-6z" stroke="#ffe342" stroke-width="3" fill="#fff"/><g><use xlink:href="#k" transform="matrix(1,0,0,1,1272,231.9990517102122) translate(12.876543209876544 17.77777777777778)"/><use xlink:href="#u" transform="matrix(1,0,0,1,1272,231.9990517102122) translate(2.058641975308646 35.55555555555556)"/><use xlink:href="#v" transform="matrix(1,0,0,1,1272,231.9990517102122) translate(31.657407407407412 35.55555555555556)"/><use xlink:href="#w" transform="matrix(1,0,0,1,1272,231.9990517102122) translate(43.354938271604944 35.55555555555556)"/><use xlink:href="#x" transform="matrix(1,0,0,1,1272,231.9990517102122) translate(61.87345679012346 35.55555555555556)"/><use xlink:href="#y" transform="matrix(1,0,0,1,1272,231.9990517102122) translate(20.561728395061728 48.888888888888886)"/><use xlink:href="#z" transform="matrix(1,0,0,1,1272,231.9990517102122) translate(50.160493827160494 48.888888888888886)"/><use xlink:href="#A" transform="matrix(1,0,0,1,1272,231.9990517102122) translate(17.197530864197528 62.22222222222223)"/><use xlink:href="#B" transform="matrix(1,0,0,1,1272,231.9990517102122) translate(25.20679012345679 75.55555555555556)"/><use xlink:href="#C" transform="matrix(1,0,0,1,1272,231.9990517102122) translate(9.481481481481481 88.88888888888889)"/><use xlink:href="#D" transform="matrix(1,0,0,1,1272,231.9990517102122) translate(61.27160493827161 88.88888888888889)"/><use xlink:href="#E" transform="matrix(1,0,0,1,1272,231.9990517102122) translate(8.200617283950614 102.22222222222221)"/><use xlink:href="#F" transform="matrix(1,0,0,1,1272,231.9990517102122) translate(29.805555555555554 102.22222222222221)"/><use xlink:href="#G" transform="matrix(1,0,0,1,1272,231.9990517102122) translate(58.16975308641975 102.22222222222221)"/></g><path d="M1270 400.67a6 6 0 0 1 6-6h108a6 6 0 0 1 6 6v83a6 6 0 0 1-6 6h-108a6 6 0 0 1-6-6z" stroke="#fc9432" stroke-width="3" fill="#fc9432"/><path d="M1260 391a6 6 0 0 1 6-6h108a6 6 0 0 1 6 6v83a6 6 0 0 1-6 6h-108a6 6 0 0 1-6-6z" stroke="#fc9432" stroke-width="3" fill="#fff"/><g><use xlink:href="#H" transform="matrix(1,0,0,1,1272,397.00000000000006) translate(-1.3827160493827222 17.77777777777778)"/><use xlink:href="#I" transform="matrix(1,0,0,1,1272,397.00000000000006) translate(2.3518518518518547 35.55555555555556)"/><use xlink:href="#J" transform="matrix(1,0,0,1,1272,397.00000000000006) translate(31.3641975308642 35.55555555555556)"/><use xlink:href="#K" transform="matrix(1,0,0,1,1272,397.00000000000006) translate(76.39506172839506 35.55555555555556)"/><use xlink:href="#L" transform="matrix(1,0,0,1,1272,397.00000000000006) translate(0.1913580246913611 48.888888888888886)"/><use xlink:href="#v" transform="matrix(1,0,0,1,1272,397.00000000000006) translate(33.52469135802469 48.888888888888886)"/><use xlink:href="#w" transform="matrix(1,0,0,1,1272,397.00000000000006) translate(45.22222222222222 48.888888888888886)"/><use xlink:href="#x" transform="matrix(1,0,0,1,1272,397.00000000000006) translate(63.74074074074074 48.888888888888886)"/><use xlink:href="#y" transform="matrix(1,0,0,1,1272,397.00000000000006) translate(17.47530864197531 62.22222222222223)"/><use xlink:href="#M" transform="matrix(1,0,0,1,1272,397.00000000000006) translate(47.074074074074076 62.22222222222223)"/></g><path d="M1460 161a6 6 0 0 1 6-6h168a6 6 0 0 1 6 6v128a6 6 0 0 1-6 6h-168a6 6 0 0 1-6-6z" stroke="#6db1ff" stroke-width="3" fill="#6db1ff"/><path d="M1450 151a6 6 0 0 1 6-6h168a6 6 0 0 1 6 6v128a6 6 0 0 1-6 6h-168a6 6 0 0 1-6-6z" stroke="#6db1ff" stroke-width="3" fill="#fff"/><g><use xlink:href="#N" transform="matrix(1,0,0,1,1462,156.99999999999997) translate(40.99382716049383 17.77777777777778)"/><use xlink:href="#O" transform="matrix(1,0,0,1,1462,156.99999999999997) translate(10.145061728395063 35.55555555555556)"/><use xlink:href="#P" transform="matrix(1,0,0,1,1462,156.99999999999997) translate(46.53395061728394 35.55555555555556)"/><use xlink:href="#Q" transform="matrix(1,0,0,1,1462,156.99999999999997) translate(108.84876543209876 35.55555555555556)"/><use xlink:href="#R" transform="matrix(1,0,0,1,1462,156.99999999999997) translate(35.1141975308642 48.888888888888886)"/><use xlink:href="#S" transform="matrix(1,0,0,1,1462,156.99999999999997) translate(68.41666666666666 48.888888888888886)"/><use xlink:href="#T" transform="matrix(1,0,0,1,1462,156.99999999999997) translate(93.10802469135803 48.888888888888886)"/><use xlink:href="#U" transform="matrix(1,0,0,1,1462,156.99999999999997) translate(19.12654320987655 62.22222222222223)"/><use xlink:href="#V" transform="matrix(1,0,0,1,1462,156.99999999999997) translate(100.48456790123456 62.22222222222223)"/><use xlink:href="#C" transform="matrix(1,0,0,1,1462,156.99999999999997) translate(28.679012345679013 75.55555555555556)"/><use xlink:href="#W" transform="matrix(1,0,0,1,1462,156.99999999999997) translate(80.46913580246914 75.55555555555556)"/><use xlink:href="#r" transform="matrix(1,0,0,1,1462,156.99999999999997) translate(108.80246913580247 75.55555555555556)"/><use xlink:href="#U" transform="matrix(1,0,0,1,1462,156.99999999999997) translate(5.268518518518533 88.88888888888889)"/><use xlink:href="#X" transform="matrix(1,0,0,1,1462,156.99999999999997) translate(86.62654320987654 88.88888888888889)"/><use xlink:href="#Y" transform="matrix(1,0,0,1,1462,156.99999999999997) translate(24.172839506172842 102.22222222222221)"/><use xlink:href="#Z" transform="matrix(1,0,0,1,1462,156.99999999999997) translate(37.10493827160494 102.22222222222221)"/><use xlink:href="#aa" transform="matrix(1,0,0,1,1462,156.99999999999997) translate(75.31481481481481 102.22222222222221)"/><use xlink:href="#ab" transform="matrix(1,0,0,1,1462,156.99999999999997) translate(17.922839506172835 115.55555555555554)"/><use xlink:href="#Y" transform="matrix(1,0,0,1,1462,156.99999999999997) translate(80.76234567901236 115.55555555555554)"/><use xlink:href="#ac" transform="matrix(1,0,0,1,1462,156.99999999999997) translate(93.69444444444444 115.55555555555554)"/></g><defs><path fill="#3a414a" d="M30-248c87 1 191-15 191 75 0 78-77 80-158 76V0H30v-248zm33 125c57 0 124 11 124-50 0-59-68-47-124-48v98" id="ad"/><path fill="#3a414a" d="M114-163C36-179 61-72 57 0H25l-1-190h30c1 12-1 29 2 39 6-27 23-49 58-41v29" id="ae"/><path fill="#3a414a" d="M100-194c62-1 85 37 85 99 1 63-27 99-86 99S16-35 15-95c0-66 28-99 85-99zM99-20c44 1 53-31 53-75 0-43-8-75-51-75s-53 32-53 75 10 74 51 75" id="af"/><path fill="#3a414a" d="M24-231v-30h32v30H24zM-9 49c24 4 33-6 33-30v-209h32V24c2 40-23 58-65 49V49" id="ag"/><path fill="#3a414a" d="M100-194c63 0 86 42 84 106H49c0 40 14 67 53 68 26 1 43-12 49-29l28 8c-11 28-37 45-77 45C44 4 14-33 15-96c1-61 26-98 85-98zm52 81c6-60-76-77-97-28-3 7-6 17-6 28h103" id="ah"/><path fill="#3a414a" d="M96-169c-40 0-48 33-48 73s9 75 48 75c24 0 41-14 43-38l32 2c-6 37-31 61-74 61-59 0-76-41-82-99-10-93 101-131 147-64 4 7 5 14 7 22l-32 3c-4-21-16-35-41-35" id="ai"/><path fill="#3a414a" d="M59-47c-2 24 18 29 38 22v24C64 9 27 4 27-40v-127H5v-23h24l9-43h21v43h35v23H59v120" id="aj"/><g id="a"><use transform="matrix(0.06172839506172839,0,0,0.06172839506172839,0,0)" xlink:href="#ad"/><use transform="matrix(0.06172839506172839,0,0,0.06172839506172839,14.814814814814813,0)" xlink:href="#ae"/><use transform="matrix(0.06172839506172839,0,0,0.06172839506172839,22.160493827160494,0)" xlink:href="#af"/><use transform="matrix(0.06172839506172839,0,0,0.06172839506172839,34.50617283950617,0)" xlink:href="#ag"/><use transform="matrix(0.06172839506172839,0,0,0.06172839506172839,39.382716049382715,0)" xlink:href="#ah"/><use transform="matrix(0.06172839506172839,0,0,0.06172839506172839,51.72839506172839,0)" xlink:href="#ai"/><use transform="matrix(0.06172839506172839,0,0,0.06172839506172839,62.839506172839506,0)" xlink:href="#aj"/></g><path fill="#3a414a" d="M30-248c118-7 216 8 213 122C240-48 200 0 122 0H30v-248zM63-27c89 8 146-16 146-99s-60-101-146-95v194" id="ak"/><path fill="#3a414a" d="M141-36C126-15 110 5 73 4 37 3 15-17 15-53c-1-64 63-63 125-63 3-35-9-54-41-54-24 1-41 7-42 31l-33-3c5-37 33-52 76-52 45 0 72 20 72 64v82c-1 20 7 32 28 27v20c-31 9-61-2-59-35zM48-53c0 20 12 33 32 33 41-3 63-29 60-74-43 2-92-5-92 41" id="al"/><path fill="#3a414a" d="M115-194c53 0 69 39 70 98 0 66-23 100-70 100C84 3 66-7 56-30L54 0H23l1-261h32v101c10-23 28-34 59-34zm-8 174c40 0 45-34 45-75 0-40-5-75-45-74-42 0-51 32-51 76 0 43 10 73 51 73" id="am"/><path fill="#3a414a" d="M135-143c-3-34-86-38-87 0 15 53 115 12 119 90S17 21 10-45l28-5c4 36 97 45 98 0-10-56-113-15-118-90-4-57 82-63 122-42 12 7 21 19 24 35" id="an"/><g id="b"><use transform="matrix(0.06172839506172839,0,0,0.06172839506172839,0,0)" xlink:href="#ak"/><use transform="matrix(0.06172839506172839,0,0,0.06172839506172839,15.987654320987653,0)" xlink:href="#al"/><use transform="matrix(0.06172839506172839,0,0,0.06172839506172839,28.333333333333332,0)" xlink:href="#aj"/><use transform="matrix(0.06172839506172839,0,0,0.06172839506172839,34.50617283950617,0)" xlink:href="#al"/><use transform="matrix(0.06172839506172839,0,0,0.06172839506172839,46.85185185185185,0)" xlink:href="#am"/><use transform="matrix(0.06172839506172839,0,0,0.06172839506172839,59.197530864197525,0)" xlink:href="#al"/><use transform="matrix(0.06172839506172839,0,0,0.06172839506172839,71.5432098765432,0)" xlink:href="#an"/><use transform="matrix(0.06172839506172839,0,0,0.06172839506172839,82.65432098765432,0)" xlink:href="#ah"/></g><g id="c"><use transform="matrix(0.06172839506172839,0,0,0.06172839506172839,0,0)" xlink:href="#ak"/><use transform="matrix(0.06172839506172839,0,0,0.06172839506172839,15.987654320987653,0)" xlink:href="#al"/><use transform="matrix(0.06172839506172839,0,0,0.06172839506172839,28.333333333333332,0)" xlink:href="#aj"/><use transform="matrix(0.06172839506172839,0,0,0.06172839506172839,34.50617283950617,0)" xlink:href="#al"/><use transform="matrix(0.06172839506172839,0,0,0.06172839506172839,46.85185185185185,0)" xlink:href="#am"/><use transform="matrix(0.06172839506172839,0,0,0.06172839506172839,59.197530864197525,0)" xlink:href="#al"/><use transform="matrix(0.06172839506172839,0,0,0.06172839506172839,71.5432098765432,0)" xlink:href="#an"/><use transform="matrix(0.06172839506172839,0,0,0.06172839506172839,82.65432098765432,0)" xlink:href="#ah"/></g><path fill="#3a414a" d="M33 0v-248h34V0H33" id="ao"/><path fill="#3a414a" d="M117-194c89-4 53 116 60 194h-32v-121c0-31-8-49-39-48C34-167 62-67 57 0H25l-1-190h30c1 10-1 24 2 32 11-22 29-35 61-36" id="ap"/><path fill="#3a414a" d="M108 0H70L1-190h34L89-25l56-165h34" id="aq"/><path fill="#3a414a" d="M179-190L93 31C79 59 56 82 12 73V49c39 6 53-20 64-50L1-190h34L92-34l54-156h33" id="ar"/><g id="d"><use transform="matrix(0.030864197530864182,0,0,0.030864197530864182,0,0)" xlink:href="#ao"/><use transform="matrix(0.030864197530864182,0,0,0.030864197530864182,3.0864197530864184,0)" xlink:href="#ap"/><use transform="matrix(0.030864197530864182,0,0,0.030864197530864182,9.259259259259256,0)" xlink:href="#aq"/><use transform="matrix(0.030864197530864182,0,0,0.030864197530864182,14.81481481481481,0)" xlink:href="#ah"/><use transform="matrix(0.030864197530864182,0,0,0.030864197530864182,20.987654320987644,0)" xlink:href="#ap"/><use transform="matrix(0.030864197530864182,0,0,0.030864197530864182,27.16049382716048,0)" xlink:href="#aj"/><use transform="matrix(0.030864197530864182,0,0,0.030864197530864182,30.246913580246897,0)" xlink:href="#af"/><use transform="matrix(0.030864197530864182,0,0,0.030864197530864182,36.41975308641973,0)" xlink:href="#ae"/><use transform="matrix(0.030864197530864182,0,0,0.030864197530864182,40.09259259259257,0)" xlink:href="#ar"/></g><path fill="#3a414a" d="M101-234c-31-9-42 10-38 44h38v23H63V0H32v-167H5v-23h27c-7-52 17-82 69-68v24" id="as"/><g id="e"><use transform="matrix(0.030864197530864182,0,0,0.030864197530864182,0,0)" xlink:href="#af"/><use transform="matrix(0.030864197530864182,0,0,0.030864197530864182,6.172839506172837,0)" xlink:href="#as"/></g><path fill="#3a414a" d="M177-190C167-65 218 103 67 71c-23-6-38-20-44-43l32-5c15 47 100 32 89-28v-30C133-14 115 1 83 1 29 1 15-40 15-95c0-56 16-97 71-98 29-1 48 16 59 35 1-10 0-23 2-32h30zM94-22c36 0 50-32 50-73 0-42-14-75-50-75-39 0-46 34-46 75s6 73 46 73" id="at"/><path fill="#3a414a" d="M24-231v-30h32v30H24zM24 0v-190h32V0H24" id="au"/><g id="f"><use transform="matrix(0.030864197530864182,0,0,0.030864197530864182,0,0)" xlink:href="#at"/><use transform="matrix(0.030864197530864182,0,0,0.030864197530864182,6.172839506172837,0)" xlink:href="#ah"/><use transform="matrix(0.030864197530864182,0,0,0.030864197530864182,12.345679012345673,0)" xlink:href="#ap"/><use transform="matrix(0.030864197530864182,0,0,0.030864197530864182,18.518518518518512,0)" xlink:href="#ah"/><use transform="matrix(0.030864197530864182,0,0,0.030864197530864182,24.691358024691347,0)" xlink:href="#ae"/><use transform="matrix(0.030864197530864182,0,0,0.030864197530864182,28.364197530864185,0)" xlink:href="#au"/><use transform="matrix(0.030864197530864182,0,0,0.030864197530864182,30.802469135802454,0)" xlink:href="#ai"/></g><path fill="#3a414a" d="M85-194c31 0 48 13 60 33l-1-100h32l1 261h-30c-2-10 0-23-3-31C134-8 116 4 85 4 32 4 16-35 15-94c0-66 23-100 70-100zm9 24c-40 0-46 34-46 75 0 40 6 74 45 74 42 0 51-32 51-76 0-42-9-74-50-73" id="av"/><path fill="#3a414a" d="M68-38c1 34 0 65-14 84H32c9-13 17-26 17-46H33v-38h35" id="aw"/><g id="g"><use transform="matrix(0.030864197530864182,0,0,0.030864197530864182,0,0)" xlink:href="#av"/><use transform="matrix(0.030864197530864182,0,0,0.030864197530864182,6.172839506172837,0)" xlink:href="#al"/><use transform="matrix(0.030864197530864182,0,0,0.030864197530864182,12.345679012345673,0)" xlink:href="#aj"/><use transform="matrix(0.030864197530864182,0,0,0.030864197530864182,15.432098765432091,0)" xlink:href="#al"/><use transform="matrix(0.030864197530864182,0,0,0.030864197530864182,21.60493827160493,0)" xlink:href="#an"/><use transform="matrix(0.030864197530864182,0,0,0.030864197530864182,27.160493827160483,0)" xlink:href="#ah"/><use transform="matrix(0.030864197530864182,0,0,0.030864197530864182,33.33333333333332,0)" xlink:href="#aj"/><use transform="matrix(0.030864197530864182,0,0,0.030864197530864182,36.41975308641974,0)" xlink:href="#an"/><use transform="matrix(0.030864197530864182,0,0,0.030864197530864182,41.97530864197529,0)" xlink:href="#aw"/></g><g id="h"><use transform="matrix(0.030864197530864182,0,0,0.030864197530864182,0,0)" xlink:href="#al"/><use transform="matrix(0.030864197530864182,0,0,0.030864197530864182,6.172839506172837,0)" xlink:href="#ai"/><use transform="matrix(0.030864197530864182,0,0,0.030864197530864182,11.728395061728389,0)" xlink:href="#aj"/><use transform="matrix(0.030864197530864182,0,0,0.030864197530864182,14.814814814814806,0)" xlink:href="#au"/><use transform="matrix(0.030864197530864182,0,0,0.030864197530864182,17.253086419753075,0)" xlink:href="#aq"/><use transform="matrix(0.030864197530864182,0,0,0.030864197530864182,22.80864197530863,0)" xlink:href="#au"/><use transform="matrix(0.030864197530864182,0,0,0.030864197530864182,25.246913580246897,0)" xlink:href="#aj"/><use transform="matrix(0.030864197530864182,0,0,0.030864197530864182,28.333333333333314,0)" xlink:href="#au"/><use transform="matrix(0.030864197530864182,0,0,0.030864197530864182,30.771604938271587,0)" xlink:href="#ah"/><use transform="matrix(0.030864197530864182,0,0,0.030864197530864182,36.94444444444442,0)" xlink:href="#an"/></g><g id="i"><use transform="matrix(0.030864197530864182,0,0,0.030864197530864182,0,0)" xlink:href="#al"/><use transform="matrix(0.030864197530864182,0,0,0.030864197530864182,6.172839506172837,0)" xlink:href="#ap"/><use transform="matrix(0.030864197530864182,0,0,0.030864197530864182,12.345679012345673,0)" xlink:href="#av"/></g><path fill="#3a414a" d="M141 0L90-78 38 0H4l68-98-65-92h35l48 74 47-74h35l-64 92 68 98h-35" id="ax"/><path fill="#3a414a" d="M106-169C34-169 62-67 57 0H25v-261h32l-1 103c12-21 28-36 61-36 89 0 53 116 60 194h-32v-121c2-32-8-49-39-48" id="ay"/><path fill="#3a414a" d="M33 0v-38h34V0H33" id="az"/><g id="j"><use transform="matrix(0.030864197530864182,0,0,0.030864197530864182,0,0)" xlink:href="#ah"/><use transform="matrix(0.030864197530864182,0,0,0.030864197530864182,6.172839506172837,0)" xlink:href="#ax"/><use transform="matrix(0.030864197530864182,0,0,0.030864197530864182,11.728395061728389,0)" xlink:href="#ai"/><use transform="matrix(0.030864197530864182,0,0,0.030864197530864182,17.283950617283942,0)" xlink:href="#ay"/><use transform="matrix(0.030864197530864182,0,0,0.030864197530864182,23.456790123456777,0)" xlink:href="#al"/><use transform="matrix(0.030864197530864182,0,0,0.030864197530864182,29.629629629629612,0)" xlink:href="#ap"/><use transform="matrix(0.030864197530864182,0,0,0.030864197530864182,35.80246913580245,0)" xlink:href="#at"/><use transform="matrix(0.030864197530864182,0,0,0.030864197530864182,41.97530864197528,0)" xlink:href="#ah"/><use transform="matrix(0.030864197530864182,0,0,0.030864197530864182,48.14814814814812,0)" xlink:href="#an"/><use transform="matrix(0.030864197530864182,0,0,0.030864197530864182,53.70370370370367,0)" xlink:href="#az"/></g><path fill="#3a414a" d="M205 0l-28-72H64L36 0H1l101-248h38L239 0h-34zm-38-99l-47-123c-12 45-31 82-46 123h93" id="aA"/><g id="k"><use transform="matrix(0.06172839506172839,0,0,0.06172839506172839,0,0)" xlink:href="#aA"/><use transform="matrix(0.06172839506172839,0,0,0.06172839506172839,14.814814814814813,0)" xlink:href="#ai"/><use transform="matrix(0.06172839506172839,0,0,0.06172839506172839,25.925925925925924,0)" xlink:href="#aj"/><use transform="matrix(0.06172839506172839,0,0,0.06172839506172839,32.098765432098766,0)" xlink:href="#au"/><use transform="matrix(0.06172839506172839,0,0,0.06172839506172839,36.97530864197531,0)" xlink:href="#aq"/><use transform="matrix(0.06172839506172839,0,0,0.06172839506172839,48.08641975308642,0)" xlink:href="#au"/><use transform="matrix(0.06172839506172839,0,0,0.06172839506172839,52.96296296296296,0)" xlink:href="#aj"/><use transform="matrix(0.06172839506172839,0,0,0.06172839506172839,59.135802469135804,0)" xlink:href="#ar"/></g><path fill="#3a414a" d="M140-251c81 0 123 46 123 126C263-46 219 4 140 4 59 4 17-45 17-125s42-126 123-126zm0 227c63 0 89-41 89-101s-29-99-89-99c-61 0-89 39-89 99S79-25 140-24" id="aB"/><g id="m"><use transform="matrix(0.06172839506172839,0,0,0.06172839506172839,0,0)" xlink:href="#aB"/><use transform="matrix(0.06172839506172839,0,0,0.06172839506172839,17.28395061728395,0)" xlink:href="#aj"/><use transform="matrix(0.06172839506172839,0,0,0.06172839506172839,23.456790123456788,0)" xlink:href="#ay"/><use transform="matrix(0.06172839506172839,0,0,0.06172839506172839,35.80246913580247,0)" xlink:href="#ah"/><use transform="matrix(0.06172839506172839,0,0,0.06172839506172839,48.148148148148145,0)" xlink:href="#ae"/></g><g id="n"><use transform="matrix(0.06172839506172839,0,0,0.06172839506172839,0,0)" xlink:href="#af"/><use transform="matrix(0.06172839506172839,0,0,0.06172839506172839,12.345679012345679,0)" xlink:href="#am"/><use transform="matrix(0.06172839506172839,0,0,0.06172839506172839,24.691358024691358,0)" xlink:href="#ag"/><use transform="matrix(0.06172839506172839,0,0,0.06172839506172839,29.5679012345679,0)" xlink:href="#ah"/><use transform="matrix(0.06172839506172839,0,0,0.06172839506172839,41.913580246913575,0)" xlink:href="#ai"/><use transform="matrix(0.06172839506172839,0,0,0.06172839506172839,53.02469135802468,0)" xlink:href="#aj"/><use transform="matrix(0.06172839506172839,0,0,0.06172839506172839,59.197530864197525,0)" xlink:href="#an"/></g><g id="o"><use transform="matrix(0.06172839506172839,0,0,0.06172839506172839,0,0)" xlink:href="#af"/><use transform="matrix(0.06172839506172839,0,0,0.06172839506172839,12.345679012345679,0)" xlink:href="#am"/><use transform="matrix(0.06172839506172839,0,0,0.06172839506172839,24.691358024691358,0)" xlink:href="#ag"/><use transform="matrix(0.06172839506172839,0,0,0.06172839506172839,29.5679012345679,0)" xlink:href="#ah"/><use transform="matrix(0.06172839506172839,0,0,0.06172839506172839,41.913580246913575,0)" xlink:href="#ai"/><use transform="matrix(0.06172839506172839,0,0,0.06172839506172839,53.02469135802468,0)" xlink:href="#aj"/><use transform="matrix(0.06172839506172839,0,0,0.06172839506172839,59.197530864197525,0)" xlink:href="#an"/></g><path fill="#3a414a" d="M190 0L58-211 59 0H30v-248h39L202-35l-2-213h31V0h-41" id="aC"/><path fill="#3a414a" d="M210-169c-67 3-38 105-44 169h-31v-121c0-29-5-50-35-48C34-165 62-65 56 0H25l-1-190h30c1 10-1 24 2 32 10-44 99-50 107 0 11-21 27-35 58-36 85-2 47 119 55 194h-31v-121c0-29-5-49-35-48" id="aD"/><path fill="#3a414a" d="M24 0v-261h32V0H24" id="aE"/><path fill="#3a414a" d="M9 0v-24l116-142H16v-24h144v24L44-24h123V0H9" id="aF"/><g id="p"><use transform="matrix(0.030864197530864196,0,0,0.030864197530864196,0,0)" xlink:href="#aC"/><use transform="matrix(0.030864197530864196,0,0,0.030864197530864196,7.993827160493827,0)" xlink:href="#af"/><use transform="matrix(0.030864197530864196,0,0,0.030864197530864196,14.166666666666666,0)" xlink:href="#ae"/><use transform="matrix(0.030864197530864196,0,0,0.030864197530864196,17.839506172839506,0)" xlink:href="#aD"/><use transform="matrix(0.030864197530864196,0,0,0.030864197530864196,27.0679012345679,0)" xlink:href="#al"/><use transform="matrix(0.030864197530864196,0,0,0.030864197530864196,33.24074074074074,0)" xlink:href="#aE"/><use transform="matrix(0.030864197530864196,0,0,0.030864197530864196,35.67901234567901,0)" xlink:href="#au"/><use transform="matrix(0.030864197530864196,0,0,0.030864197530864196,38.117283950617285,0)" xlink:href="#aF"/><use transform="matrix(0.030864197530864196,0,0,0.030864197530864196,43.67283950617284,0)" xlink:href="#al"/><use transform="matrix(0.030864197530864196,0,0,0.030864197530864196,49.845679012345684,0)" xlink:href="#aj"/><use transform="matrix(0.030864197530864196,0,0,0.030864197530864196,52.9320987654321,0)" xlink:href="#au"/><use transform="matrix(0.030864197530864196,0,0,0.030864197530864196,55.370370370370374,0)" xlink:href="#af"/><use transform="matrix(0.030864197530864196,0,0,0.030864197530864196,61.543209876543216,0)" xlink:href="#ap"/><use transform="matrix(0.030864197530864196,0,0,0.030864197530864196,67.71604938271605,0)" xlink:href="#aw"/></g><path fill="#3a414a" d="M206 0h-36l-40-164L89 0H53L-1-190h32L70-26l43-164h34l41 164 42-164h31" id="aG"/><g id="q"><use transform="matrix(0.030864197530864196,0,0,0.030864197530864196,0,0)" xlink:href="#aG"/><use transform="matrix(0.030864197530864196,0,0,0.030864197530864196,7.993827160493827,0)" xlink:href="#ah"/><use transform="matrix(0.030864197530864196,0,0,0.030864197530864196,14.166666666666666,0)" xlink:href="#au"/><use transform="matrix(0.030864197530864196,0,0,0.030864197530864196,16.604938271604937,0)" xlink:href="#at"/><use transform="matrix(0.030864197530864196,0,0,0.030864197530864196,22.777777777777775,0)" xlink:href="#ay"/><use transform="matrix(0.030864197530864196,0,0,0.030864197530864196,28.950617283950614,0)" xlink:href="#aj"/><use transform="matrix(0.030864197530864196,0,0,0.030864197530864196,32.03703703703703,0)" xlink:href="#au"/><use transform="matrix(0.030864197530864196,0,0,0.030864197530864196,34.4753086419753,0)" xlink:href="#ap"/><use transform="matrix(0.030864197530864196,0,0,0.030864197530864196,40.648148148148145,0)" xlink:href="#at"/></g><g id="r"><use transform="matrix(0.030864197530864196,0,0,0.030864197530864196,0,0)" xlink:href="#al"/><use transform="matrix(0.030864197530864196,0,0,0.030864197530864196,6.172839506172839,0)" xlink:href="#ap"/><use transform="matrix(0.030864197530864196,0,0,0.030864197530864196,12.345679012345679,0)" xlink:href="#av"/></g><path fill="#3a414a" d="M115-194c55 1 70 41 70 98S169 2 115 4C84 4 66-9 55-30l1 105H24l-1-265h31l2 30c10-21 28-34 59-34zm-8 174c40 0 45-34 45-75s-6-73-45-74c-42 0-51 32-51 76 0 43 10 73 51 73" id="aH"/><path fill="#3a414a" d="M16-82v-28h88v28H16" id="aI"/><g id="s"><use transform="matrix(0.030864197530864196,0,0,0.030864197530864196,0,0)" xlink:href="#aH"/><use transform="matrix(0.030864197530864196,0,0,0.030864197530864196,6.172839506172839,0)" xlink:href="#ae"/><use transform="matrix(0.030864197530864196,0,0,0.030864197530864196,9.845679012345679,0)" xlink:href="#af"/><use transform="matrix(0.030864197530864196,0,0,0.030864197530864196,16.01851851851852,0)" xlink:href="#ag"/><use transform="matrix(0.030864197530864196,0,0,0.030864197530864196,18.45679012345679,0)" xlink:href="#ah"/><use transform="matrix(0.030864197530864196,0,0,0.030864197530864196,24.62962962962963,0)" xlink:href="#ai"/><use transform="matrix(0.030864197530864196,0,0,0.030864197530864196,30.185185185185183,0)" xlink:href="#aj"/><use transform="matrix(0.030864197530864196,0,0,0.030864197530864196,33.2716049382716,0)" xlink:href="#aI"/><use transform="matrix(0.030864197530864196,0,0,0.030864197530864196,36.94444444444444,0)" xlink:href="#an"/><use transform="matrix(0.030864197530864196,0,0,0.030864197530864196,42.5,0)" xlink:href="#aH"/><use transform="matrix(0.030864197530864196,0,0,0.030864197530864196,48.67283950617284,0)" xlink:href="#ah"/><use transform="matrix(0.030864197530864196,0,0,0.030864197530864196,54.845679012345684,0)" xlink:href="#ai"/><use transform="matrix(0.030864197530864196,0,0,0.030864197530864196,60.40123456790124,0)" xlink:href="#au"/><use transform="matrix(0.030864197530864196,0,0,0.030864197530864196,62.83950617283951,0)" xlink:href="#as"/><use transform="matrix(0.030864197530864196,0,0,0.030864197530864196,65.92592592592594,0)" xlink:href="#au"/><use transform="matrix(0.030864197530864196,0,0,0.030864197530864196,68.3641975308642,0)" xlink:href="#ai"/></g><g id="t"><use transform="matrix(0.030864197530864196,0,0,0.030864197530864196,0,0)" xlink:href="#ai"/><use transform="matrix(0.030864197530864196,0,0,0.030864197530864196,5.555555555555555,0)" xlink:href="#af"/><use transform="matrix(0.030864197530864196,0,0,0.030864197530864196,11.728395061728396,0)" xlink:href="#av"/><use transform="matrix(0.030864197530864196,0,0,0.030864197530864196,17.901234567901234,0)" xlink:href="#ah"/><use transform="matrix(0.030864197530864196,0,0,0.030864197530864196,24.074074074074073,0)" xlink:href="#az"/></g><g id="u"><use transform="matrix(0.030864197530864196,0,0,0.030864197530864196,0,0)" xlink:href="#aC"/><use transform="matrix(0.030864197530864196,0,0,0.030864197530864196,7.993827160493827,0)" xlink:href="#af"/><use transform="matrix(0.030864197530864196,0,0,0.030864197530864196,14.166666666666666,0)" xlink:href="#av"/><use transform="matrix(0.030864197530864196,0,0,0.030864197530864196,20.339506172839506,0)" xlink:href="#ah"/></g><g id="v"><use transform="matrix(0.030864197530864196,0,0,0.030864197530864196,0,0)" xlink:href="#au"/><use transform="matrix(0.030864197530864196,0,0,0.030864197530864196,2.4382716049382713,0)" xlink:href="#ap"/></g><g id="w"><use transform="matrix(0.030864197530864196,0,0,0.030864197530864196,0,0)" xlink:href="#aj"/><use transform="matrix(0.030864197530864196,0,0,0.030864197530864196,3.0864197530864197,0)" xlink:href="#ay"/><use transform="matrix(0.030864197530864196,0,0,0.030864197530864196,9.25925925925926,0)" xlink:href="#ah"/></g><path fill="#3a414a" d="M84 4C-5 8 30-112 23-190h32v120c0 31 7 50 39 49 72-2 45-101 50-169h31l1 190h-30c-1-10 1-25-2-33-11 22-28 36-60 37" id="aJ"/><g id="x"><use transform="matrix(0.030864197530864196,0,0,0.030864197530864196,0,0)" xlink:href="#an"/><use transform="matrix(0.030864197530864196,0,0,0.030864197530864196,5.555555555555555,0)" xlink:href="#aJ"/><use transform="matrix(0.030864197530864196,0,0,0.030864197530864196,11.728395061728396,0)" xlink:href="#aH"/><use transform="matrix(0.030864197530864196,0,0,0.030864197530864196,17.901234567901234,0)" xlink:href="#aH"/><use transform="matrix(0.030864197530864196,0,0,0.030864197530864196,24.074074074074073,0)" xlink:href="#aE"/><use transform="matrix(0.030864197530864196,0,0,0.030864197530864196,26.512345679012345,0)" xlink:href="#ar"/></g><g id="y"><use transform="matrix(0.030864197530864196,0,0,0.030864197530864196,0,0)" xlink:href="#ai"/><use transform="matrix(0.030864197530864196,0,0,0.030864197530864196,5.555555555555555,0)" xlink:href="#ay"/><use transform="matrix(0.030864197530864196,0,0,0.030864197530864196,11.728395061728396,0)" xlink:href="#al"/><use transform="matrix(0.030864197530864196,0,0,0.030864197530864196,17.901234567901234,0)" xlink:href="#au"/><use transform="matrix(0.030864197530864196,0,0,0.030864197530864196,20.339506172839506,0)" xlink:href="#ap"/></g><path fill="#3a414a" d="M33-154v-36h34v36H33zM33 0v-36h34V0H33" id="aK"/><g id="z"><use transform="matrix(0.030864197530864196,0,0,0.030864197530864196,0,0)" xlink:href="#at"/><use transform="matrix(0.030864197530864196,0,0,0.030864197530864196,6.172839506172839,0)" xlink:href="#ae"/><use transform="matrix(0.030864197530864196,0,0,0.030864197530864196,9.845679012345679,0)" xlink:href="#al"/><use transform="matrix(0.030864197530864196,0,0,0.030864197530864196,16.01851851851852,0)" xlink:href="#aH"/><use transform="matrix(0.030864197530864196,0,0,0.030864197530864196,22.191358024691358,0)" xlink:href="#aK"/></g><g id="A"><use transform="matrix(0.030864197530864196,0,0,0.030864197530864196,0,0)" xlink:href="#aj"/><use transform="matrix(0.030864197530864196,0,0,0.030864197530864196,3.0864197530864197,0)" xlink:href="#ae"/><use transform="matrix(0.030864197530864196,0,0,0.030864197530864196,6.7592592592592595,0)" xlink:href="#al"/><use transform="matrix(0.030864197530864196,0,0,0.030864197530864196,12.932098765432098,0)" xlink:href="#ap"/><use transform="matrix(0.030864197530864196,0,0,0.030864197530864196,19.104938271604937,0)" xlink:href="#an"/><use transform="matrix(0.030864197530864196,0,0,0.030864197530864196,24.660493827160494,0)" xlink:href="#as"/><use transform="matrix(0.030864197530864196,0,0,0.030864197530864196,27.746913580246915,0)" xlink:href="#af"/><use transform="matrix(0.030864197530864196,0,0,0.030864197530864196,33.91975308641975,0)" xlink:href="#ae"/><use transform="matrix(0.030864197530864196,0,0,0.030864197530864196,37.592592592592595,0)" xlink:href="#aD"/><use transform="matrix(0.030864197530864196,0,0,0.030864197530864196,46.82098765432099,0)" xlink:href="#au"/><use transform="matrix(0.030864197530864196,0,0,0.030864197530864196,49.25925925925926,0)" xlink:href="#ap"/><use transform="matrix(0.030864197530864196,0,0,0.030864197530864196,55.4320987654321,0)" xlink:href="#at"/></g><g id="B"><use transform="matrix(0.030864197530864196,0,0,0.030864197530864196,0,0)" xlink:href="#al"/><use transform="matrix(0.030864197530864196,0,0,0.030864197530864196,6.172839506172839,0)" xlink:href="#ai"/><use transform="matrix(0.030864197530864196,0,0,0.030864197530864196,11.728395061728396,0)" xlink:href="#aj"/><use transform="matrix(0.030864197530864196,0,0,0.030864197530864196,14.814814814814815,0)" xlink:href="#au"/><use transform="matrix(0.030864197530864196,0,0,0.030864197530864196,17.253086419753085,0)" xlink:href="#aq"/><use transform="matrix(0.030864197530864196,0,0,0.030864197530864196,22.80864197530864,0)" xlink:href="#au"/><use transform="matrix(0.030864197530864196,0,0,0.030864197530864196,25.24691358024691,0)" xlink:href="#aj"/><use transform="matrix(0.030864197530864196,0,0,0.030864197530864196,28.333333333333332,0)" xlink:href="#au"/><use transform="matrix(0.030864197530864196,0,0,0.030864197530864196,30.771604938271604,0)" xlink:href="#ah"/><use transform="matrix(0.030864197530864196,0,0,0.030864197530864196,36.94444444444444,0)" xlink:href="#an"/><use transform="matrix(0.030864197530864196,0,0,0.030864197530864196,42.5,0)" xlink:href="#aw"/></g><g id="C"><use transform="matrix(0.030864197530864196,0,0,0.030864197530864196,0,0)" xlink:href="#am"/><use transform="matrix(0.030864197530864196,0,0,0.030864197530864196,6.172839506172839,0)" xlink:href="#au"/><use transform="matrix(0.030864197530864196,0,0,0.030864197530864196,8.61111111111111,0)" xlink:href="#af"/><use transform="matrix(0.030864197530864196,0,0,0.030864197530864196,14.78395061728395,0)" xlink:href="#an"/><use transform="matrix(0.030864197530864196,0,0,0.030864197530864196,20.339506172839506,0)" xlink:href="#aH"/><use transform="matrix(0.030864197530864196,0,0,0.030864197530864196,26.512345679012345,0)" xlink:href="#ay"/><use transform="matrix(0.030864197530864196,0,0,0.030864197530864196,32.68518518518518,0)" xlink:href="#ah"/><use transform="matrix(0.030864197530864196,0,0,0.030864197530864196,38.858024691358025,0)" xlink:href="#ae"/><use transform="matrix(0.030864197530864196,0,0,0.030864197530864196,42.53086419753087,0)" xlink:href="#ah"/></g><g id="D"><use transform="matrix(0.030864197530864196,0,0,0.030864197530864196,0,0)" xlink:href="#as"/><use transform="matrix(0.030864197530864196,0,0,0.030864197530864196,3.0864197530864197,0)" xlink:href="#aE"/><use transform="matrix(0.030864197530864196,0,0,0.030864197530864196,5.5246913580246915,0)" xlink:href="#af"/><use transform="matrix(0.030864197530864196,0,0,0.030864197530864196,11.697530864197532,0)" xlink:href="#aG"/><use transform="matrix(0.030864197530864196,0,0,0.030864197530864196,19.691358024691358,0)" xlink:href="#an"/></g><g id="E"><use transform="matrix(0.030864197530864196,0,0,0.030864197530864196,0,0)" xlink:href="#al"/><use transform="matrix(0.030864197530864196,0,0,0.030864197530864196,6.172839506172839,0)" xlink:href="#ap"/><use transform="matrix(0.030864197530864196,0,0,0.030864197530864196,12.345679012345679,0)" xlink:href="#av"/></g><g id="F"><use transform="matrix(0.030864197530864196,0,0,0.030864197530864196,0,0)" xlink:href="#af"/><use transform="matrix(0.030864197530864196,0,0,0.030864197530864196,6.172839506172839,0)" xlink:href="#aj"/><use transform="matrix(0.030864197530864196,0,0,0.030864197530864196,9.25925925925926,0)" xlink:href="#ay"/><use transform="matrix(0.030864197530864196,0,0,0.030864197530864196,15.432098765432098,0)" xlink:href="#ah"/><use transform="matrix(0.030864197530864196,0,0,0.030864197530864196,21.604938271604937,0)" xlink:href="#ae"/></g><g id="G"><use transform="matrix(0.030864197530864196,0,0,0.030864197530864196,0,0)" xlink:href="#aj"/><use transform="matrix(0.030864197530864196,0,0,0.030864197530864196,3.0864197530864197,0)" xlink:href="#ar"/><use transform="matrix(0.030864197530864196,0,0,0.030864197530864196,8.641975308641975,0)" xlink:href="#aH"/><use transform="matrix(0.030864197530864196,0,0,0.030864197530864196,14.814814814814813,0)" xlink:href="#ah"/><use transform="matrix(0.030864197530864196,0,0,0.030864197530864196,20.98765432098765,0)" xlink:href="#an"/><use transform="matrix(0.030864197530864196,0,0,0.030864197530864196,26.54320987654321,0)" xlink:href="#az"/></g><path fill="#3a414a" d="M30 0v-248h187v28H63v79h144v27H63v87h162V0H30" id="aL"/><g id="H"><use transform="matrix(0.06172839506172839,0,0,0.06172839506172839,0,0)" xlink:href="#aL"/><use transform="matrix(0.06172839506172839,0,0,0.06172839506172839,14.814814814814813,0)" xlink:href="#ax"/><use transform="matrix(0.06172839506172839,0,0,0.06172839506172839,25.925925925925924,0)" xlink:href="#ai"/><use transform="matrix(0.06172839506172839,0,0,0.06172839506172839,37.03703703703704,0)" xlink:href="#ay"/><use transform="matrix(0.06172839506172839,0,0,0.06172839506172839,49.382716049382715,0)" xlink:href="#al"/><use transform="matrix(0.06172839506172839,0,0,0.06172839506172839,61.72839506172839,0)" xlink:href="#ap"/><use transform="matrix(0.06172839506172839,0,0,0.06172839506172839,74.07407407407408,0)" xlink:href="#at"/><use transform="matrix(0.06172839506172839,0,0,0.06172839506172839,86.41975308641976,0)" xlink:href="#ah"/></g><g id="I"><use transform="matrix(0.030864197530864196,0,0,0.030864197530864196,0,0)" xlink:href="#aL"/><use transform="matrix(0.030864197530864196,0,0,0.030864197530864196,7.4074074074074066,0)" xlink:href="#av"/><use transform="matrix(0.030864197530864196,0,0,0.030864197530864196,13.580246913580247,0)" xlink:href="#at"/><use transform="matrix(0.030864197530864196,0,0,0.030864197530864196,19.753086419753085,0)" xlink:href="#ah"/></g><g id="J"><use transform="matrix(0.030864197530864196,0,0,0.030864197530864196,0,0)" xlink:href="#am"/><use transform="matrix(0.030864197530864196,0,0,0.030864197530864196,6.172839506172839,0)" xlink:href="#ah"/><use transform="matrix(0.030864197530864196,0,0,0.030864197530864196,12.345679012345679,0)" xlink:href="#aj"/><use transform="matrix(0.030864197530864196,0,0,0.030864197530864196,15.432098765432098,0)" xlink:href="#aG"/><use transform="matrix(0.030864197530864196,0,0,0.030864197530864196,23.425925925925924,0)" xlink:href="#ah"/><use transform="matrix(0.030864197530864196,0,0,0.030864197530864196,29.598765432098762,0)" xlink:href="#ah"/><use transform="matrix(0.030864197530864196,0,0,0.030864197530864196,35.7716049382716,0)" xlink:href="#ap"/></g><g id="K"><use transform="matrix(0.030864197530864196,0,0,0.030864197530864196,0,0)" xlink:href="#aj"/><use transform="matrix(0.030864197530864196,0,0,0.030864197530864196,3.0864197530864197,0)" xlink:href="#aG"/><use transform="matrix(0.030864197530864196,0,0,0.030864197530864196,11.080246913580247,0)" xlink:href="#af"/></g><g id="L"><use transform="matrix(0.030864197530864196,0,0,0.030864197530864196,0,0)" xlink:href="#ap"/><use transform="matrix(0.030864197530864196,0,0,0.030864197530864196,6.172839506172839,0)" xlink:href="#af"/><use transform="matrix(0.030864197530864196,0,0,0.030864197530864196,12.345679012345679,0)" xlink:href="#av"/><use transform="matrix(0.030864197530864196,0,0,0.030864197530864196,18.51851851851852,0)" xlink:href="#ah"/><use transform="matrix(0.030864197530864196,0,0,0.030864197530864196,24.691358024691358,0)" xlink:href="#an"/></g><g id="M"><use transform="matrix(0.030864197530864196,0,0,0.030864197530864196,0,0)" xlink:href="#at"/><use transform="matrix(0.030864197530864196,0,0,0.030864197530864196,6.172839506172839,0)" xlink:href="#ae"/><use transform="matrix(0.030864197530864196,0,0,0.030864197530864196,9.845679012345679,0)" xlink:href="#al"/><use transform="matrix(0.030864197530864196,0,0,0.030864197530864196,16.01851851851852,0)" xlink:href="#aH"/><use transform="matrix(0.030864197530864196,0,0,0.030864197530864196,22.191358024691358,0)" xlink:href="#ay"/><use transform="matrix(0.030864197530864196,0,0,0.030864197530864196,28.364197530864196,0)" xlink:href="#az"/></g><path fill="#3a414a" d="M240 0l2-218c-23 76-54 145-80 218h-23L58-218 59 0H30v-248h44l77 211c21-75 51-140 76-211h43V0h-30" id="aM"/><g id="N"><use transform="matrix(0.06172839506172839,0,0,0.06172839506172839,0,0)" xlink:href="#aM"/><use transform="matrix(0.06172839506172839,0,0,0.06172839506172839,18.456790123456788,0)" xlink:href="#ah"/><use transform="matrix(0.06172839506172839,0,0,0.06172839506172839,30.80246913580247,0)" xlink:href="#aj"/><use transform="matrix(0.06172839506172839,0,0,0.06172839506172839,36.97530864197531,0)" xlink:href="#ay"/><use transform="matrix(0.06172839506172839,0,0,0.06172839506172839,49.32098765432099,0)" xlink:href="#af"/><use transform="matrix(0.06172839506172839,0,0,0.06172839506172839,61.666666666666664,0)" xlink:href="#av"/></g><g id="O"><use transform="matrix(0.030864197530864196,0,0,0.030864197530864196,0,0)" xlink:href="#ao"/><use transform="matrix(0.030864197530864196,0,0,0.030864197530864196,3.0864197530864197,0)" xlink:href="#aD"/><use transform="matrix(0.030864197530864196,0,0,0.030864197530864196,12.314814814814813,0)" xlink:href="#aH"/><use transform="matrix(0.030864197530864196,0,0,0.030864197530864196,18.48765432098765,0)" xlink:href="#al"/><use transform="matrix(0.030864197530864196,0,0,0.030864197530864196,24.66049382716049,0)" xlink:href="#ai"/><use transform="matrix(0.030864197530864196,0,0,0.030864197530864196,30.216049382716044,0)" xlink:href="#aj"/></g><g id="P"><use transform="matrix(0.030864197530864196,0,0,0.030864197530864196,0,0)" xlink:href="#al"/><use transform="matrix(0.030864197530864196,0,0,0.030864197530864196,6.172839506172839,0)" xlink:href="#an"/><use transform="matrix(0.030864197530864196,0,0,0.030864197530864196,11.728395061728396,0)" xlink:href="#an"/><use transform="matrix(0.030864197530864196,0,0,0.030864197530864196,17.28395061728395,0)" xlink:href="#ah"/><use transform="matrix(0.030864197530864196,0,0,0.030864197530864196,23.456790123456788,0)" xlink:href="#an"/><use transform="matrix(0.030864197530864196,0,0,0.030864197530864196,29.01234567901234,0)" xlink:href="#an"/><use transform="matrix(0.030864197530864196,0,0,0.030864197530864196,34.5679012345679,0)" xlink:href="#aD"/><use transform="matrix(0.030864197530864196,0,0,0.030864197530864196,43.79629629629629,0)" xlink:href="#ah"/><use transform="matrix(0.030864197530864196,0,0,0.030864197530864196,49.96913580246913,0)" xlink:href="#ap"/><use transform="matrix(0.030864197530864196,0,0,0.030864197530864196,56.141975308641975,0)" xlink:href="#aj"/></g><g id="Q"><use transform="matrix(0.030864197530864196,0,0,0.030864197530864196,0,0)" xlink:href="#aD"/><use transform="matrix(0.030864197530864196,0,0,0.030864197530864196,9.228395061728394,0)" xlink:href="#ah"/><use transform="matrix(0.030864197530864196,0,0,0.030864197530864196,15.401234567901234,0)" xlink:href="#aj"/><use transform="matrix(0.030864197530864196,0,0,0.030864197530864196,18.487654320987655,0)" xlink:href="#ay"/><use transform="matrix(0.030864197530864196,0,0,0.030864197530864196,24.660493827160494,0)" xlink:href="#af"/><use transform="matrix(0.030864197530864196,0,0,0.030864197530864196,30.833333333333332,0)" xlink:href="#av"/></g><g id="R"><use transform="matrix(0.030864197530864196,0,0,0.030864197530864196,0,0)" xlink:href="#an"/><use transform="matrix(0.030864197530864196,0,0,0.030864197530864196,5.555555555555555,0)" xlink:href="#aj"/><use transform="matrix(0.030864197530864196,0,0,0.030864197530864196,8.641975308641975,0)" xlink:href="#af"/><use transform="matrix(0.030864197530864196,0,0,0.030864197530864196,14.814814814814813,0)" xlink:href="#ae"/><use transform="matrix(0.030864197530864196,0,0,0.030864197530864196,18.48765432098765,0)" xlink:href="#ah"/><use transform="matrix(0.030864197530864196,0,0,0.030864197530864196,24.66049382716049,0)" xlink:href="#an"/></g><g id="S"><use transform="matrix(0.030864197530864196,0,0,0.030864197530864196,0,0)" xlink:href="#av"/><use transform="matrix(0.030864197530864196,0,0,0.030864197530864196,6.172839506172839,0)" xlink:href="#al"/><use transform="matrix(0.030864197530864196,0,0,0.030864197530864196,12.345679012345679,0)" xlink:href="#aj"/><use transform="matrix(0.030864197530864196,0,0,0.030864197530864196,15.432098765432098,0)" xlink:href="#al"/></g><g id="T"><use transform="matrix(0.030864197530864196,0,0,0.030864197530864196,0,0)" xlink:href="#al"/><use transform="matrix(0.030864197530864196,0,0,0.030864197530864196,6.172839506172839,0)" xlink:href="#am"/><use transform="matrix(0.030864197530864196,0,0,0.030864197530864196,12.345679012345679,0)" xlink:href="#af"/><use transform="matrix(0.030864197530864196,0,0,0.030864197530864196,18.51851851851852,0)" xlink:href="#aJ"/><use transform="matrix(0.030864197530864196,0,0,0.030864197530864196,24.691358024691358,0)" xlink:href="#aj"/></g><g id="U"><use transform="matrix(0.030864197530864196,0,0,0.030864197530864196,0,0)" xlink:href="#ai"/><use transform="matrix(0.030864197530864196,0,0,0.030864197530864196,5.555555555555555,0)" xlink:href="#ay"/><use transform="matrix(0.030864197530864196,0,0,0.030864197530864196,11.728395061728396,0)" xlink:href="#al"/><use transform="matrix(0.030864197530864196,0,0,0.030864197530864196,17.901234567901234,0)" xlink:href="#ae"/><use transform="matrix(0.030864197530864196,0,0,0.030864197530864196,21.574074074074073,0)" xlink:href="#al"/><use transform="matrix(0.030864197530864196,0,0,0.030864197530864196,27.74691358024691,0)" xlink:href="#ai"/><use transform="matrix(0.030864197530864196,0,0,0.030864197530864196,33.30246913580247,0)" xlink:href="#aj"/><use transform="matrix(0.030864197530864196,0,0,0.030864197530864196,36.388888888888886,0)" xlink:href="#ah"/><use transform="matrix(0.030864197530864196,0,0,0.030864197530864196,42.56172839506173,0)" xlink:href="#ae"/><use transform="matrix(0.030864197530864196,0,0,0.030864197530864196,46.23456790123457,0)" xlink:href="#au"/><use transform="matrix(0.030864197530864196,0,0,0.030864197530864196,48.67283950617284,0)" xlink:href="#aF"/><use transform="matrix(0.030864197530864196,0,0,0.030864197530864196,54.2283950617284,0)" xlink:href="#al"/><use transform="matrix(0.030864197530864196,0,0,0.030864197530864196,60.40123456790124,0)" xlink:href="#aj"/><use transform="matrix(0.030864197530864196,0,0,0.030864197530864196,63.487654320987666,0)" xlink:href="#au"/><use transform="matrix(0.030864197530864196,0,0,0.030864197530864196,65.92592592592592,0)" xlink:href="#af"/><use transform="matrix(0.030864197530864196,0,0,0.030864197530864196,72.09876543209876,0)" xlink:href="#ap"/></g><g id="V"><use transform="matrix(0.030864197530864196,0,0,0.030864197530864196,0,0)" xlink:href="#as"/><use transform="matrix(0.030864197530864196,0,0,0.030864197530864196,3.0864197530864197,0)" xlink:href="#al"/><use transform="matrix(0.030864197530864196,0,0,0.030864197530864196,9.25925925925926,0)" xlink:href="#ai"/><use transform="matrix(0.030864197530864196,0,0,0.030864197530864196,14.814814814814815,0)" xlink:href="#aj"/><use transform="matrix(0.030864197530864196,0,0,0.030864197530864196,17.901234567901234,0)" xlink:href="#af"/><use transform="matrix(0.030864197530864196,0,0,0.030864197530864196,24.074074074074073,0)" xlink:href="#ae"/><use transform="matrix(0.030864197530864196,0,0,0.030864197530864196,27.74691358024691,0)" xlink:href="#an"/><use transform="matrix(0.030864197530864196,0,0,0.030864197530864196,33.30246913580247,0)" xlink:href="#aK"/></g><g id="W"><use transform="matrix(0.030864197530864196,0,0,0.030864197530864196,0,0)" xlink:href="#as"/><use transform="matrix(0.030864197530864196,0,0,0.030864197530864196,3.0864197530864197,0)" xlink:href="#aE"/><use transform="matrix(0.030864197530864196,0,0,0.030864197530864196,5.5246913580246915,0)" xlink:href="#af"/><use transform="matrix(0.030864197530864196,0,0,0.030864197530864196,11.697530864197532,0)" xlink:href="#aG"/><use transform="matrix(0.030864197530864196,0,0,0.030864197530864196,19.691358024691358,0)" xlink:href="#an"/></g><path fill="#3a414a" d="M0-79v-24h360v24H0" id="aN"/><g id="X"><use transform="matrix(0.030864197530864196,0,0,0.030864197530864196,0,0)" xlink:href="#as"/><use transform="matrix(0.030864197530864196,0,0,0.030864197530864196,3.0864197530864197,0)" xlink:href="#al"/><use transform="matrix(0.030864197530864196,0,0,0.030864197530864196,9.25925925925926,0)" xlink:href="#ai"/><use transform="matrix(0.030864197530864196,0,0,0.030864197530864196,14.814814814814815,0)" xlink:href="#aj"/><use transform="matrix(0.030864197530864196,0,0,0.030864197530864196,17.901234567901234,0)" xlink:href="#af"/><use transform="matrix(0.030864197530864196,0,0,0.030864197530864196,24.074074074074073,0)" xlink:href="#ae"/><use transform="matrix(0.030864197530864196,0,0,0.030864197530864196,27.74691358024691,0)" xlink:href="#an"/><use transform="matrix(0.030864197530864196,0,0,0.030864197530864196,33.30246913580247,0)" xlink:href="#aN"/><use transform="matrix(0.030864197530864196,0,0,0.030864197530864196,44.41358024691358,0)" xlink:href="#aG"/><use transform="matrix(0.030864197530864196,0,0,0.030864197530864196,52.40740740740741,0)" xlink:href="#au"/><use transform="matrix(0.030864197530864196,0,0,0.030864197530864196,54.845679012345684,0)" xlink:href="#aj"/><use transform="matrix(0.030864197530864196,0,0,0.030864197530864196,57.9320987654321,0)" xlink:href="#ay"/></g><g id="Y"><use transform="matrix(0.030864197530864196,0,0,0.030864197530864196,0,0)" xlink:href="#af"/><use transform="matrix(0.030864197530864196,0,0,0.030864197530864196,6.172839506172839,0)" xlink:href="#ae"/></g><g id="Z"><use transform="matrix(0.030864197530864196,0,0,0.030864197530864196,0,0)" xlink:href="#aG"/><use transform="matrix(0.030864197530864196,0,0,0.030864197530864196,7.993827160493827,0)" xlink:href="#au"/><use transform="matrix(0.030864197530864196,0,0,0.030864197530864196,10.432098765432098,0)" xlink:href="#aj"/><use transform="matrix(0.030864197530864196,0,0,0.030864197530864196,13.518518518518517,0)" xlink:href="#ay"/><use transform="matrix(0.030864197530864196,0,0,0.030864197530864196,19.691358024691358,0)" xlink:href="#af"/><use transform="matrix(0.030864197530864196,0,0,0.030864197530864196,25.864197530864196,0)" xlink:href="#aJ"/><use transform="matrix(0.030864197530864196,0,0,0.030864197530864196,32.03703703703704,0)" xlink:href="#aj"/></g><g id="aa"><use transform="matrix(0.030864197530864196,0,0,0.030864197530864196,0,0)" xlink:href="#aJ"/><use transform="matrix(0.030864197530864196,0,0,0.030864197530864196,6.172839506172839,0)" xlink:href="#ap"/><use transform="matrix(0.030864197530864196,0,0,0.030864197530864196,12.345679012345679,0)" xlink:href="#ai"/><use transform="matrix(0.030864197530864196,0,0,0.030864197530864196,17.901234567901234,0)" xlink:href="#ah"/><use transform="matrix(0.030864197530864196,0,0,0.030864197530864196,24.074074074074073,0)" xlink:href="#ae"/><use transform="matrix(0.030864197530864196,0,0,0.030864197530864196,27.74691358024691,0)" xlink:href="#aj"/><use transform="matrix(0.030864197530864196,0,0,0.030864197530864196,30.833333333333332,0)" xlink:href="#al"/><use transform="matrix(0.030864197530864196,0,0,0.030864197530864196,37.00617283950617,0)" xlink:href="#au"/><use transform="matrix(0.030864197530864196,0,0,0.030864197530864196,39.44444444444444,0)" xlink:href="#ap"/><use transform="matrix(0.030864197530864196,0,0,0.030864197530864196,45.617283950617285,0)" xlink:href="#aj"/><use transform="matrix(0.030864197530864196,0,0,0.030864197530864196,48.7037037037037,0)" xlink:href="#ar"/><use transform="matrix(0.030864197530864196,0,0,0.030864197530864196,53.425925925925924,0)" xlink:href="#aw"/></g><g id="ab"><use transform="matrix(0.030864197530864196,0,0,0.030864197530864196,0,0)" xlink:href="#ae"/><use transform="matrix(0.030864197530864196,0,0,0.030864197530864196,3.6728395061728394,0)" xlink:href="#ah"/><use transform="matrix(0.030864197530864196,0,0,0.030864197530864196,9.845679012345679,0)" xlink:href="#at"/><use transform="matrix(0.030864197530864196,0,0,0.030864197530864196,16.01851851851852,0)" xlink:href="#au"/><use transform="matrix(0.030864197530864196,0,0,0.030864197530864196,18.45679012345679,0)" xlink:href="#af"/><use transform="matrix(0.030864197530864196,0,0,0.030864197530864196,24.62962962962963,0)" xlink:href="#ap"/><use transform="matrix(0.030864197530864196,0,0,0.030864197530864196,30.80246913580247,0)" xlink:href="#al"/><use transform="matrix(0.030864197530864196,0,0,0.030864197530864196,36.97530864197531,0)" xlink:href="#aE"/><use transform="matrix(0.030864197530864196,0,0,0.030864197530864196,39.41358024691358,0)" xlink:href="#au"/><use transform="matrix(0.030864197530864196,0,0,0.030864197530864196,41.851851851851855,0)" xlink:href="#aF"/><use transform="matrix(0.030864197530864196,0,0,0.030864197530864196,47.40740740740741,0)" xlink:href="#ah"/><use transform="matrix(0.030864197530864196,0,0,0.030864197530864196,53.580246913580254,0)" xlink:href="#av"/></g><g id="ac"><use transform="matrix(0.030864197530864196,0,0,0.030864197530864196,0,0)" xlink:href="#av"/><use transform="matrix(0.030864197530864196,0,0,0.030864197530864196,6.172839506172839,0)" xlink:href="#ar"/><use transform="matrix(0.030864197530864196,0,0,0.030864197530864196,11.728395061728396,0)" xlink:href="#ap"/><use transform="matrix(0.030864197530864196,0,0,0.030864197530864196,17.901234567901234,0)" xlink:href="#al"/><use transform="matrix(0.030864197530864196,0,0,0.030864197530864196,24.074074074074073,0)" xlink:href="#aD"/><use transform="matrix(0.030864197530864196,0,0,0.030864197530864196,33.30246913580247,0)" xlink:href="#au"/><use transform="matrix(0.030864197530864196,0,0,0.030864197530864196,35.74074074074074,0)" xlink:href="#ai"/><use transform="matrix(0.030864197530864196,0,0,0.030864197530864196,41.2962962962963,0)" xlink:href="#az"/></g></defs></g></svg>