<svg xmlns="http://www.w3.org/2000/svg" xmlns:xlink="http://www.w3.org/1999/xlink" xmlns:lucid="lucid" width="2526" height="1865.06"><g transform="translate(-59.99999999999994 0)" lucid:page-tab-id="0_0"><path d="M0 0h2645.67v1870.87H0z" fill="#fff"/><path d="M2084.27 1382.04a6 6 0 0 1 6-6H2554a6 6 0 0 1 6 6v431.16a6 6 0 0 1-6 6h-463.73a6 6 0 0 1-6-6z" stroke="#979ea8" stroke-width="10" fill="#979ea8"/><use xlink:href="#a" transform="matrix(1,0,0,1,2096.2728276871953,1388.0372807017543) translate(185.90740740740742 214.65277777777777)"/><path d="M2084.27 1471.87a6 6 0 0 1 6-6H2554a6 6 0 0 1 6 6v341.33a6 6 0 0 1-6 6h-463.73a6 6 0 0 1-6-6z" stroke="#979ea8" stroke-width="10" fill="#fff"/><path d="M2080 1400.35a6 6 0 0 1 6-6h448a6 6 0 0 1 6 6v46.5a6 6 0 0 1-6 6h-448a6 6 0 0 1-6-6z" stroke="#000" stroke-opacity="0" stroke-width="3" fill="#fff" fill-opacity="0"/><use xlink:href="#b" transform="matrix(1,0,0,1,2085,1399.3485722311514) translate(235.18518518518516 51.55555555555556)"/><path d="M2240 1482.94a6 6 0 0 1 6-6h282.46a6 6 0 0 1 6 6v108.8a6 6 0 0 1-6 6H2246a6 6 0 0 1-6-6z" stroke="#000" stroke-opacity="0" fill="#fff" fill-opacity="0"/><use xlink:href="#c" transform="matrix(1,0,0,1,2245,1481.936515488147) translate(54.54320987654336 39.111111111111086)"/><use xlink:href="#d" transform="matrix(1,0,0,1,2245,1481.936515488147) translate(8.370370370370551 97.77777777777771)"/><use xlink:href="#e" transform="matrix(1,0,0,1,2245,1481.936515488147) translate(124.88888888888899 97.77777777777771)"/><path d="M80 46a6 6 0 0 1 6-6h2468a6 6 0 0 1 6 6v868a6 6 0 0 1-6 6H86a6 6 0 0 1-6-6z" stroke="#1071e5" stroke-width="10" fill="#1071e5"/><use xlink:href="#a" transform="matrix(1,0,0,1,91.99999999999994,51.99999999999993) translate(1187.9074074074074 432.88715277777777)"/><path d="M80 115.02a6 6 0 0 1 6-6h2468a6 6 0 0 1 6 6V914a6 6 0 0 1-6 6H86a6 6 0 0 1-6-6z" stroke="#1071e5" stroke-width="10" fill="#fff"/><path d="M80 26a6 6 0 0 1 6-6h490.22a6 6 0 0 1 6 6v115.83a6 6 0 0 1-6 6H86a6 6 0 0 1-6-6z" stroke="#000" stroke-opacity="0" stroke-width="3" fill="#fff" fill-opacity="0"/><use xlink:href="#f" transform="matrix(1,0,0,1,85.00000000000006,25) translate(33.74382716049382 73.68055555555556)"/><use xlink:href="#g" transform="matrix(1,0,0,1,85.00000000000006,25) translate(165.85493827160494 73.68055555555556)"/><path d="M827.65 257.63c39.16 0 70.9 35.1 70.9 78.4 0 43.3-31.74 78.42-70.9 78.42h-212.7c-39.16 0-70.9-35.1-70.9-78.4 0-43.3 31.74-78.42 70.9-78.42z" stroke="#000" stroke-opacity="0" fill="#979ea8"/><use xlink:href="#h" transform="matrix(1,0,0,1,549.0470297029705,262.6315789473683) translate(29.47530864197546 35.555555555555515)"/><use xlink:href="#i" transform="matrix(1,0,0,1,549.0470297029705,262.6315789473683) translate(221.82098765432093 35.555555555555515)"/><use xlink:href="#j" transform="matrix(1,0,0,1,549.0470297029705,262.6315789473683) translate(31.9444444444446 88.88888888888879)"/><use xlink:href="#k" transform="matrix(1,0,0,1,549.0470297029705,262.6315789473683) translate(130.70987654320993 142.22222222222206)"/><path d="M2071.1 440.78c39.16 0 70.9 28.5 70.9 63.66 0 35.17-31.74 63.67-70.9 63.67h-212.7c-39.16 0-70.9-28.5-70.9-63.66s31.74-63.66 70.9-63.66z" stroke="#000" stroke-opacity="0" fill="#979ea8"/><use xlink:href="#l" transform="matrix(1,0,0,1,1792.5000000000002,445.77631578947364) translate(15.895061728395234 41.22222222222224)"/><use xlink:href="#m" transform="matrix(1,0,0,1,1792.5000000000002,445.77631578947364) translate(141.69753086419757 41.22222222222224)"/><use xlink:href="#k" transform="matrix(1,0,0,1,1792.5000000000002,445.77631578947364) translate(130.70987654320993 94.55555555555551)"/><path d="M827.65 599.2c39.16 0 70.9 35.1 70.9 78.42 0 43.3-31.74 78.4-70.9 78.4h-212.7c-39.16 0-70.9-35.1-70.9-78.4 0-43.3 31.74-78.4 70.9-78.4z" stroke="#000" stroke-opacity="0" fill="#979ea8"/><use xlink:href="#n" transform="matrix(1,0,0,1,549.0470297029705,604.2105263157896) translate(107.19635802469145 35.555555555555515)"/><use xlink:href="#o" transform="matrix(1,0,0,1,549.0470297029705,604.2105263157896) translate(41.82598765432113 88.88888888888879)"/><use xlink:href="#k" transform="matrix(1,0,0,1,549.0470297029705,604.2105263157896) translate(130.71487654320993 142.22222222222206)"/><path d="M903.05 336.04h347.37" stroke="#6db1ff" stroke-width="9" fill="none"/><path d="M903.17 340.54h-4.76l.15-4.5-.07-3.55-.07-.96h4.77z" stroke="#6db1ff" stroke-width=".05" fill="#6db1ff"/><path d="M1269.2 336.04l-14.28 4.63v-9.27z" stroke="#6db1ff" stroke-width="9" fill="#6db1ff"/><use xlink:href="#p" transform="matrix(1,0,0,1,924.1240670472318,294.70614035087704) translate(0.0049999999999954525 24.88888888888888)"/><use xlink:href="#q" transform="matrix(1,0,0,1,924.1240670472318,294.70614035087704) translate(25.93092592592591 24.88888888888888)"/><use xlink:href="#r" transform="matrix(1,0,0,1,924.1240670472318,294.70614035087704) translate(70.78277777777774 24.88888888888888)"/><use xlink:href="#s" transform="matrix(1,0,0,1,924.1240670472318,294.70614035087704) translate(215.79512345679004 24.88888888888888)"/><path d="M903.05 677.62h269.87" stroke="#6db1ff" stroke-width="9" fill="none"/><path d="M903.17 682.12h-4.76l.15-4.5-.07-3.56-.07-.94h4.77z" stroke="#6db1ff" stroke-width=".05" fill="#6db1ff"/><path d="M1191.7 677.62l-14.28 4.63v-9.27z" stroke="#6db1ff" stroke-width="9" fill="#6db1ff"/><use xlink:href="#p" transform="matrix(1,0,0,1,966.9318540463676,636.2850877192984) translate(0.0049999999999954525 24.88888888888888)"/><use xlink:href="#q" transform="matrix(1,0,0,1,966.9318540463676,636.2850877192984) translate(25.93092592592591 24.88888888888888)"/><use xlink:href="#t" transform="matrix(1,0,0,1,966.9318540463676,636.2850877192984) translate(70.78277777777774 24.88888888888888)"/><path d="M2146.5 504.44h247.04" stroke="#6db1ff" stroke-width="9" fill="none"/><path d="M2146.62 508.94h-4.8l.04-.4.14-4.1v-1.12l-.2-3.38h4.82z" stroke="#6db1ff" stroke-width=".05" fill="#6db1ff"/><path d="M2412.3 504.44l-14.25 4.64v-9.27z" stroke="#6db1ff" stroke-width="9" fill="#6db1ff"/><use xlink:href="#p" transform="matrix(1,0,0,1,2227.575777467527,463.109649122807) translate(0.005000000000002558 24.88888888888888)"/><use xlink:href="#u" transform="matrix(1,0,0,1,2227.575777467527,463.109649122807) translate(25.930925925925916 24.88888888888888)"/><path d="M2052.06 436.28V346a6 6 0 0 1 6-6h199.86" stroke="#ff8f8f" stroke-width="9" fill="none"/><path d="M2056.56 440.78h-9v-4.62h9z" stroke="#ff8f8f" stroke-width=".05" fill="#ff8f8f"/><path d="M2276.7 340l-14.28 4.64v-9.28z" stroke="#ff8f8f" stroke-width="9" fill="#ff8f8f"/><use xlink:href="#v" transform="matrix(1,0,0,1,2037.0249138537629,294.03141175104236) translate(0.0049999999999954525 24.88888888888888)"/><use xlink:href="#q" transform="matrix(1,0,0,1,2037.0249138537629,294.03141175104236) translate(51.85685185185183 24.88888888888888)"/><use xlink:href="#w" transform="matrix(1,0,0,1,2037.0249138537629,294.03141175104236) translate(96.70870370370366 24.88888888888888)"/><use xlink:href="#x" transform="matrix(1,0,0,1,2037.0249138537629,294.03141175104236) translate(163.9432716049382 24.88888888888888)"/><path d="M164.5 335.26h346.24M164.62 335.26H160" stroke="#00c2a8" stroke-width="9" fill="none"/><path d="M529.5 335.26l-14.26 4.64v-9.27z" stroke="#00c2a8" stroke-width="9" fill="#00c2a8"/><use xlink:href="#y" transform="matrix(1,0,0,1,191.47505726474807,293.9298245614035) translate(0.0049999999999954525 24.88888888888888)"/><use xlink:href="#z" transform="matrix(1,0,0,1,191.47505726474807,293.9298245614035) translate(25.93092592592591 24.88888888888888)"/><use xlink:href="#A" transform="matrix(1,0,0,1,191.47505726474807,293.9298245614035) translate(70.78277777777774 24.88888888888888)"/><use xlink:href="#B" transform="matrix(1,0,0,1,191.47505726474807,293.9298245614035) translate(166.79512345679004 24.88888888888888)"/><path d="M164.5 676.84h346.24M164.62 676.84H160" stroke="#00c2a8" stroke-width="9" fill="none"/><path d="M529.5 676.84l-14.26 4.64v-9.27z" stroke="#00c2a8" stroke-width="9" fill="#00c2a8"/><use xlink:href="#y" transform="matrix(1,0,0,1,166.0001614600972,635.5087719298247) translate(0.0049999999999954525 24.88888888888888)"/><use xlink:href="#z" transform="matrix(1,0,0,1,166.0001614600972,635.5087719298247) translate(25.93092592592591 24.88888888888888)"/><use xlink:href="#C" transform="matrix(1,0,0,1,166.0001614600972,635.5087719298247) translate(70.78277777777774 24.88888888888888)"/><use xlink:href="#D" transform="matrix(1,0,0,1,166.0001614600972,635.5087719298247) translate(169.04203703703695 24.88888888888888)"/><path d="M721.3 253.13V186a6 6 0 0 1 6-6h226.55" stroke="#ff8f8f" stroke-width="9" fill="none"/><path d="M725.8 257.63h-9v-4.6h9z" stroke="#ff8f8f" stroke-width=".05" fill="#ff8f8f"/><path d="M972.62 180l-14.27 4.64v-9.28z" stroke="#ff8f8f" stroke-width="9" fill="#ff8f8f"/><use xlink:href="#E" transform="matrix(1,0,0,1,737.8868853580732,134.0314117510424) translate(0.0049999999999954525 24.88888888888888)"/><use xlink:href="#q" transform="matrix(1,0,0,1,737.8868853580732,134.0314117510424) translate(25.93092592592591 24.88888888888888)"/><use xlink:href="#w" transform="matrix(1,0,0,1,737.8868853580732,134.0314117510424) translate(70.78277777777774 24.88888888888888)"/><use xlink:href="#x" transform="matrix(1,0,0,1,737.8868853580732,134.0314117510424) translate(138.01734567901227 24.88888888888888)"/><path d="M721.3 760.53v65.58a6 6 0 0 0 6 6h226.55" stroke="#ff8f8f" stroke-width="9" fill="none"/><path d="M725.8 760.64h-9v-4.6h9z" stroke="#ff8f8f" stroke-width=".05" fill="#ff8f8f"/><path d="M972.62 832.1l-14.27 4.64v-9.27z" stroke="#ff8f8f" stroke-width="9" fill="#ff8f8f"/><use xlink:href="#F" transform="matrix(1,0,0,1,738.2637746857365,840.7405180735188) translate(0.0049999999999954525 24.88888888888888)"/><use xlink:href="#G" transform="matrix(1,0,0,1,738.2637746857365,840.7405180735188) translate(25.93092592592591 24.88888888888888)"/><use xlink:href="#w" transform="matrix(1,0,0,1,738.2637746857365,840.7405180735188) translate(70.78277777777774 24.88888888888888)"/><use xlink:href="#x" transform="matrix(1,0,0,1,738.2637746857365,840.7405180735188) translate(138.01734567901227 24.88888888888888)"/><path d="M1604.5 320h354.25a6 6 0 0 1 6 6v81.45M1604.62 320H1600" stroke="#6db1ff" stroke-width="9" fill="none"/><path d="M1964.75 426.2l-4.63-14.25h9.27z" stroke="#6db1ff" stroke-width="9" fill="#6db1ff"/><use xlink:href="#H" transform="matrix(1,0,0,1,1606.0851908083405,278.66666666666674) translate(0.0049999999999954525 24.88888888888888)"/><use xlink:href="#q" transform="matrix(1,0,0,1,1606.0851908083405,278.66666666666674) translate(51.85685185185183 24.88888888888888)"/><use xlink:href="#I" transform="matrix(1,0,0,1,1606.0851908083405,278.66666666666674) translate(96.70870370370366 24.88888888888888)"/><use xlink:href="#s" transform="matrix(1,0,0,1,1606.0851908083405,278.66666666666674) translate(222.79512345679004 24.88888888888888)"/><path d="M1598.25 680h360.5a6 6 0 0 0 6-6v-72.56M1598.37 680h-4.62" stroke="#6db1ff" stroke-width="9" fill="none"/><path d="M1964.75 582.67l4.64 14.27h-9.28z" stroke="#6db1ff" stroke-width="9" fill="#6db1ff"/><use xlink:href="#J" transform="matrix(1,0,0,1,1627.6089963837035,638.6666666666667) translate(0.0049999999999954525 24.88888888888888)"/><use xlink:href="#q" transform="matrix(1,0,0,1,1627.6089963837035,638.6666666666667) translate(69.14080246913576 24.88888888888888)"/><use xlink:href="#t" transform="matrix(1,0,0,1,1627.6089963837035,638.6666666666667) translate(113.9926543209876 24.88888888888888)"/><path d="M80 966.98a6 6 0 0 1 6-6h1628a6 6 0 0 1 6 6v868a6 6 0 0 1-6 6H86a6 6 0 0 1-6-6z" stroke="#008573" stroke-width="10" fill="#008573"/><use xlink:href="#a" transform="matrix(1,0,0,1,92.00000000000028,972.9819803319351) translate(767.9074074074074 432.40277777777777)"/><path d="M80 1036a6 6 0 0 1 6-6h1628a6 6 0 0 1 6 6v798.98a6 6 0 0 1-6 6H86a6 6 0 0 1-6-6z" stroke="#008573" stroke-width="10" fill="#fff"/><path d="M80 946.98a6 6 0 0 1 6-6h506.42a6 6 0 0 1 6 6v115.84a6 6 0 0 1-6 6H86a6 6 0 0 1-6-6z" stroke="#000" stroke-opacity="0" stroke-width="3" fill="#fff" fill-opacity="0"/><use xlink:href="#K" transform="matrix(1,0,0,1,85.00000000000023,945.9819803319352) translate(27.333333333333314 73.68055555555556)"/><use xlink:href="#L" transform="matrix(1,0,0,1,85.00000000000023,945.9819803319352) translate(267.0308641975309 73.68055555555556)"/><path d="M819.2 1198.6c40.4 0 73.18 35.12 73.18 78.42 0 43.3-32.77 78.4-73.2 78.4H599.63c-40.42 0-73.18-35.1-73.18-78.4 0-43.3 32.76-78.4 73.18-78.4z" stroke="#000" stroke-opacity="0" fill="#979ea8"/><use xlink:href="#h" transform="matrix(1,0,0,1,531.4356435643565,1203.6135592793034) translate(34.97530864197546 35.555555555555515)"/><use xlink:href="#i" transform="matrix(1,0,0,1,531.4356435643565,1203.6135592793034) translate(227.32098765432093 35.555555555555515)"/><use xlink:href="#j" transform="matrix(1,0,0,1,531.4356435643565,1203.6135592793034) translate(37.4444444444446 88.88888888888879)"/><use xlink:href="#k" transform="matrix(1,0,0,1,531.4356435643565,1203.6135592793034) translate(136.20987654320993 142.22222222222206)"/><path d="M1337.6 1384.14c40.42 0 73.2 28.5 73.2 63.67s-32.78 63.68-73.2 63.68h-219.56c-40.42 0-73.2-28.5-73.2-63.67 0-35.15 32.78-63.66 73.2-63.66z" stroke="#000" stroke-opacity="0" fill="#979ea8"/><use xlink:href="#l" transform="matrix(1,0,0,1,1049.851485148515,1389.1442610336896) translate(21.395061728395234 41.22222222222224)"/><use xlink:href="#m" transform="matrix(1,0,0,1,1049.851485148515,1389.1442610336896) translate(147.19753086419757 41.22222222222224)"/><use xlink:href="#k" transform="matrix(1,0,0,1,1049.851485148515,1389.1442610336896) translate(136.20987654320993 94.55555555555551)"/><path d="M819.2 1540.2c40.4 0 73.18 35.1 73.18 78.4 0 43.3-32.77 78.4-73.2 78.4H599.63c-40.42 0-73.18-35.1-73.18-78.4 0-43.3 32.76-78.4 73.18-78.4z" stroke="#000" stroke-opacity="0" fill="#979ea8"/><use xlink:href="#n" transform="matrix(1,0,0,1,531.4356435643565,1545.1925066477247) translate(112.69635802469145 35.555555555555515)"/><use xlink:href="#o" transform="matrix(1,0,0,1,531.4356435643565,1545.1925066477247) translate(47.32598765432113 88.88888888888879)"/><use xlink:href="#k" transform="matrix(1,0,0,1,531.4356435643565,1545.1925066477247) translate(136.21487654320993 142.22222222222206)"/><path d="M896.88 1277.02h324.94a6 6 0 0 1 6 6v67.8" stroke="#6db1ff" stroke-width="9" fill="none"/><path d="M897 1281.52h-4.77l.15-4.5-.07-3.44-.07-1.06H897z" stroke="#6db1ff" stroke-width=".05" fill="#6db1ff"/><path d="M1227.82 1369.58l-4.63-14.26h9.26z" stroke="#6db1ff" stroke-width="9" fill="#6db1ff"/><g><use xlink:href="#M" transform="matrix(1,0,0,1,909.0458670947853,1235.6881206828123) translate(0.0049999999999954525 24.88888888888888)"/><use xlink:href="#N" transform="matrix(1,0,0,1,909.0458670947853,1235.6881206828123) translate(51.85685185185183 24.88888888888888)"/><use xlink:href="#O" transform="matrix(1,0,0,1,909.0458670947853,1235.6881206828123) translate(96.70870370370366 24.88888888888888)"/><use xlink:href="#P" transform="matrix(1,0,0,1,909.0458670947853,1235.6881206828123) translate(222.79512345679004 24.88888888888888)"/></g><path d="M896.88 1618.6h324.94a6 6 0 0 0 6-6v-67.8" stroke="#6db1ff" stroke-width="9" fill="none"/><path d="M897 1623.1h-4.77l.15-4.5-.07-3.44-.07-1.06H897z" stroke="#6db1ff" stroke-width=".05" fill="#6db1ff"/><path d="M1227.82 1526.04l4.64 14.27h-9.27z" stroke="#6db1ff" stroke-width="9" fill="#6db1ff"/><g><use xlink:href="#Q" transform="matrix(1,0,0,1,937.7159690996324,1577.2670680512333) translate(0.0049999999999954525 24.88888888888888)"/><use xlink:href="#N" transform="matrix(1,0,0,1,937.7159690996324,1577.2670680512333) translate(69.14080246913576 24.88888888888888)"/><use xlink:href="#R" transform="matrix(1,0,0,1,937.7159690996324,1577.2670680512333) translate(113.9926543209876 24.88888888888888)"/></g><path d="M1415.3 1447.8H1540a.4.4 0 0 0 .4-.38.4.4 0 0 1 .38-.4h95.9" stroke="#6db1ff" stroke-width="9" fill="none"/><path d="M1415.4 1452.3h-4.8l.06-.65.13-3.84-.14-3.8-.07-.7h4.8z" stroke="#6db1ff" stroke-width=".05" fill="#6db1ff"/><path d="M1655.44 1447.03l-14.27 4.64v-9.27z" stroke="#6db1ff" stroke-width="9" fill="#6db1ff"/><g><use xlink:href="#S" transform="matrix(1,0,0,1,1483.504183723794,1405.7052820111062) translate(0.005000000000002558 24.88888888888888)"/><use xlink:href="#u" transform="matrix(1,0,0,1,1483.504183723794,1405.7052820111062) translate(25.930925925925916 24.88888888888888)"/></g><path d="M1317.95 1379.64v-96.62a6 6 0 0 1 6-6h236.48" stroke="#ff8f8f" stroke-width="9" fill="none"/><path d="M1322.45 1384.14h-9v-4.6h9z" stroke="#ff8f8f" stroke-width=".05" fill="#ff8f8f"/><path d="M1579.2 1277.02l-14.27 4.64v-9.27z" stroke="#ff8f8f" stroke-width="9" fill="#ff8f8f"/><g><use xlink:href="#T" transform="matrix(1,0,0,1,1326.817103623734,1231.052865767188) translate(0.0049999999999954525 24.88888888888888)"/><use xlink:href="#q" transform="matrix(1,0,0,1,1326.817103623734,1231.052865767188) translate(51.85685185185183 24.88888888888888)"/><use xlink:href="#w" transform="matrix(1,0,0,1,1326.817103623734,1231.052865767188) translate(96.70870370370366 24.88888888888888)"/><use xlink:href="#x" transform="matrix(1,0,0,1,1326.817103623734,1231.052865767188) translate(163.9432716049382 24.88888888888888)"/></g><path d="M134.5 1276.25h358.63M134.62 1276.25H130" stroke="#00c2a8" stroke-width="9" fill="none"/><path d="M511.9 1276.25l-14.27 4.63v-9.27z" stroke="#00c2a8" stroke-width="9" fill="#00c2a8"/><g><use xlink:href="#U" transform="matrix(1,0,0,1,153.8048574787473,1234.9118048933385) translate(0.0049999999999954525 24.88888888888888)"/><use xlink:href="#z" transform="matrix(1,0,0,1,153.8048574787473,1234.9118048933385) translate(51.85685185185183 24.88888888888888)"/><use xlink:href="#A" transform="matrix(1,0,0,1,153.8048574787473,1234.9118048933385) translate(96.70870370370366 24.88888888888888)"/><use xlink:href="#B" transform="matrix(1,0,0,1,153.8048574787473,1234.9118048933385) translate(192.72104938271596 24.88888888888888)"/></g><path d="M134.5 1617.82h358.63M134.62 1617.82H130" stroke="#00c2a8" stroke-width="9" fill="none"/><path d="M511.9 1617.82l-14.27 4.64v-9.27z" stroke="#00c2a8" stroke-width="9" fill="#00c2a8"/><g><use xlink:href="#V" transform="matrix(1,0,0,1,172.9632398198134,1576.4907522617598) translate(0.0049999999999954525 24.88888888888888)"/><use xlink:href="#z" transform="matrix(1,0,0,1,172.9632398198134,1576.4907522617598) translate(69.14080246913576 24.88888888888888)"/><use xlink:href="#C" transform="matrix(1,0,0,1,172.9632398198134,1576.4907522617598) translate(113.9926543209876 24.88888888888888)"/><use xlink:href="#D" transform="matrix(1,0,0,1,172.9632398198134,1576.4907522617598) translate(212.25191358024682 24.88888888888888)"/></g><path d="M709.4 1194.1V1127a6 6 0 0 1 6-6h235.13" stroke="#ff8f8f" stroke-width="9" fill="none"/><path d="M713.9 1198.6h-9v-4.6h9z" stroke="#ff8f8f" stroke-width=".05" fill="#ff8f8f"/><path d="M969.3 1120.98l-14.27 4.64v-9.27z" stroke="#ff8f8f" stroke-width="9" fill="#ff8f8f"/><g><use xlink:href="#W" transform="matrix(1,0,0,1,714.9017708324936,1075.0133920829776) translate(0.0049999999999954525 24.88888888888888)"/><use xlink:href="#N" transform="matrix(1,0,0,1,714.9017708324936,1075.0133920829776) translate(51.85685185185183 24.88888888888888)"/><use xlink:href="#X" transform="matrix(1,0,0,1,714.9017708324936,1075.0133920829776) translate(96.70870370370366 24.88888888888888)"/><use xlink:href="#Y" transform="matrix(1,0,0,1,714.9017708324936,1075.0133920829776) translate(163.9432716049382 24.88888888888888)"/></g><path d="M709.4 1701.5v65.6a6 6 0 0 0 6 6h235.13" stroke="#ff8f8f" stroke-width="9" fill="none"/><path d="M713.9 1701.62h-9v-4.6h9z" stroke="#ff8f8f" stroke-width=".05" fill="#ff8f8f"/><path d="M969.3 1773.1l-14.27 4.62v-9.27z" stroke="#ff8f8f" stroke-width="9" fill="#ff8f8f"/><g><use xlink:href="#Z" transform="matrix(1,0,0,1,715.2732186778726,1781.7224984054537) translate(0.0049999999999954525 24.88888888888888)"/><use xlink:href="#q" transform="matrix(1,0,0,1,715.2732186778726,1781.7224984054537) translate(51.85685185185183 24.88888888888888)"/><use xlink:href="#w" transform="matrix(1,0,0,1,715.2732186778726,1781.7224984054537) translate(96.70870370370366 24.88888888888888)"/><use xlink:href="#x" transform="matrix(1,0,0,1,715.2732186778726,1781.7224984054537) translate(163.9432716049382 24.88888888888888)"/></g><path d="M2264.5 1657.73h222.17M2264.62 1657.73H2260" stroke="#00c2a8" stroke-width="9" fill="none"/><path d="M2505.44 1657.73l-14.27 4.63v-9.27z" stroke="#00c2a8" stroke-width="9" fill="#00c2a8"/><g><use xlink:href="#aa" transform="matrix(1,0,0,1,2149.2019131394513,1617.090734256733) translate(0 21.333333333333332)"/><use xlink:href="#ab" transform="matrix(1,0,0,1,2149.2019131394513,1617.090734256733) translate(150.96296296296296 21.333333333333332)"/><use xlink:href="#ac" transform="matrix(1,0,0,1,2149.2019131394513,1617.090734256733) translate(211.55555555555554 21.333333333333332)"/><use xlink:href="#ad" transform="matrix(1,0,0,1,2149.2019131394513,1617.090734256733) translate(226.37037037037035 21.333333333333332)"/></g><path d="M2264.5 1717.73h222.17M2264.62 1717.73H2260" stroke="#ff8f8f" stroke-width="9" fill="none"/><path d="M2505.44 1717.73l-14.27 4.63v-9.27z" stroke="#ff8f8f" stroke-width="9" fill="#ff8f8f"/><g><use xlink:href="#aa" transform="matrix(1,0,0,1,2145.326609980778,1677.090734256733) translate(0 21.333333333333332)"/><use xlink:href="#ab" transform="matrix(1,0,0,1,2145.326609980778,1677.090734256733) translate(150.96296296296296 21.333333333333332)"/><use xlink:href="#ac" transform="matrix(1,0,0,1,2145.326609980778,1677.090734256733) translate(211.55555555555554 21.333333333333332)"/><use xlink:href="#ae" transform="matrix(1,0,0,1,2145.326609980778,1677.090734256733) translate(226.37037037037035 21.333333333333332)"/></g><path d="M2264.5 1777.73h222.17M2264.62 1777.73H2260" stroke="#6db1ff" stroke-width="9" fill="none"/><path d="M2505.44 1777.73l-14.27 4.63v-9.27z" stroke="#6db1ff" stroke-width="9" fill="#6db1ff"/><g><use xlink:href="#af" transform="matrix(1,0,0,1,2326.662204084462,1737.0907342567332) translate(0 21.333333333333332)"/><use xlink:href="#ag" transform="matrix(1,0,0,1,2326.662204084462,1737.0907342567332) translate(107.85185185185183 21.333333333333332)"/></g><defs><path fill="#fff" d="M30-248c87 1 191-15 191 75 0 78-77 80-158 76V0H30v-248zm33 125c57 0 124 11 124-50 0-59-68-47-124-48v98" id="ah"/><path fill="#fff" d="M114-163C36-179 61-72 57 0H25l-1-190h30c1 12-1 29 2 39 6-27 23-49 58-41v29" id="ai"/><path fill="#fff" d="M100-194c62-1 85 37 85 99 1 63-27 99-86 99S16-35 15-95c0-66 28-99 85-99zM99-20c44 1 53-31 53-75 0-43-8-75-51-75s-53 32-53 75 10 74 51 75" id="aj"/><path fill="#fff" d="M96-169c-40 0-48 33-48 73s9 75 48 75c24 0 41-14 43-38l32 2c-6 37-31 61-74 61-59 0-76-41-82-99-10-93 101-131 147-64 4 7 5 14 7 22l-32 3c-4-21-16-35-41-35" id="ak"/><path fill="#fff" d="M100-194c63 0 86 42 84 106H49c0 40 14 67 53 68 26 1 43-12 49-29l28 8c-11 28-37 45-77 45C44 4 14-33 15-96c1-61 26-98 85-98zm52 81c6-60-76-77-97-28-3 7-6 17-6 28h103" id="al"/><path fill="#fff" d="M135-143c-3-34-86-38-87 0 15 53 115 12 119 90S17 21 10-45l28-5c4 36 97 45 98 0-10-56-113-15-118-90-4-57 82-63 122-42 12 7 21 19 24 35" id="am"/><g id="a"><use transform="matrix(0.06172839506172839,0,0,0.06172839506172839,0,0)" xlink:href="#ah"/><use transform="matrix(0.06172839506172839,0,0,0.06172839506172839,14.814814814814813,0)" xlink:href="#ai"/><use transform="matrix(0.06172839506172839,0,0,0.06172839506172839,22.160493827160494,0)" xlink:href="#aj"/><use transform="matrix(0.06172839506172839,0,0,0.06172839506172839,34.50617283950617,0)" xlink:href="#ak"/><use transform="matrix(0.06172839506172839,0,0,0.06172839506172839,45.61728395061728,0)" xlink:href="#al"/><use transform="matrix(0.06172839506172839,0,0,0.06172839506172839,57.962962962962955,0)" xlink:href="#am"/><use transform="matrix(0.06172839506172839,0,0,0.06172839506172839,69.07407407407406,0)" xlink:href="#am"/></g><path fill="#fff" d="M30 0v-248h33v221h125V0H30" id="an"/><path fill="#fff" d="M177-190C167-65 218 103 67 71c-23-6-38-20-44-43l32-5c15 47 100 32 89-28v-30C133-14 115 1 83 1 29 1 15-40 15-95c0-56 16-97 71-98 29-1 48 16 59 35 1-10 0-23 2-32h30zM94-22c36 0 50-32 50-73 0-42-14-75-50-75-39 0-46 34-46 75s6 73 46 73" id="ao"/><path fill="#fff" d="M117-194c89-4 53 116 60 194h-32v-121c0-31-8-49-39-48C34-167 62-67 57 0H25l-1-190h30c1 10-1 24 2 32 11-22 29-35 61-36" id="ap"/><path fill="#fff" d="M85-194c31 0 48 13 60 33l-1-100h32l1 261h-30c-2-10 0-23-3-31C134-8 116 4 85 4 32 4 16-35 15-94c0-66 23-100 70-100zm9 24c-40 0-46 34-46 75 0 40 6 74 45 74 42 0 51-32 51-76 0-42-9-74-50-73" id="aq"/><g id="b"><use transform="matrix(0.17901234567901234,0,0,0.17901234567901234,0,0)" xlink:href="#an"/><use transform="matrix(0.17901234567901234,0,0,0.17901234567901234,35.80246913580247,0)" xlink:href="#al"/><use transform="matrix(0.17901234567901234,0,0,0.17901234567901234,71.60493827160494,0)" xlink:href="#ao"/><use transform="matrix(0.17901234567901234,0,0,0.17901234567901234,107.4074074074074,0)" xlink:href="#al"/><use transform="matrix(0.17901234567901234,0,0,0.17901234567901234,143.20987654320987,0)" xlink:href="#ap"/><use transform="matrix(0.17901234567901234,0,0,0.17901234567901234,179.01234567901236,0)" xlink:href="#aq"/></g><path fill="#ba23f6" d="M212-179c-10-28-35-45-73-45-59 0-87 40-87 99 0 60 29 101 89 101 43 0 62-24 78-52l27 14C228-24 195 4 139 4 59 4 22-46 18-125c-6-104 99-153 187-111 19 9 31 26 39 46" id="ar"/><path fill="#ba23f6" d="M141-36C126-15 110 5 73 4 37 3 15-17 15-53c-1-64 63-63 125-63 3-35-9-54-41-54-24 1-41 7-42 31l-33-3c5-37 33-52 76-52 45 0 72 20 72 64v82c-1 20 7 32 28 27v20c-31 9-61-2-59-35zM48-53c0 20 12 33 32 33 41-3 63-29 60-74-43 2-92-5-92 41" id="as"/><path fill="#ba23f6" d="M24 0v-261h32V0H24" id="at"/><path fill="#ba23f6" d="M96-169c-40 0-48 33-48 73s9 75 48 75c24 0 41-14 43-38l32 2c-6 37-31 61-74 61-59 0-76-41-82-99-10-93 101-131 147-64 4 7 5 14 7 22l-32 3c-4-21-16-35-41-35" id="au"/><path fill="#ba23f6" d="M84 4C-5 8 30-112 23-190h32v120c0 31 7 50 39 49 72-2 45-101 50-169h31l1 190h-30c-1-10 1-25-2-33-11 22-28 36-60 37" id="av"/><path fill="#ba23f6" d="M59-47c-2 24 18 29 38 22v24C64 9 27 4 27-40v-127H5v-23h24l9-43h21v43h35v23H59v120" id="aw"/><path fill="#ba23f6" d="M100-194c63 0 86 42 84 106H49c0 40 14 67 53 68 26 1 43-12 49-29l28 8c-11 28-37 45-77 45C44 4 14-33 15-96c1-61 26-98 85-98zm52 81c6-60-76-77-97-28-3 7-6 17-6 28h103" id="ax"/><path fill="#ba23f6" d="M85-194c31 0 48 13 60 33l-1-100h32l1 261h-30c-2-10 0-23-3-31C134-8 116 4 85 4 32 4 16-35 15-94c0-66 23-100 70-100zm9 24c-40 0-46 34-46 75 0 40 6 74 45 74 42 0 51-32 51-76 0-42-9-74-50-73" id="ay"/><g id="c"><use transform="matrix(0.13580246913580238,0,0,0.13580246913580238,0,0)" xlink:href="#ar"/><use transform="matrix(0.13580246913580238,0,0,0.13580246913580238,35.172839506172814,0)" xlink:href="#as"/><use transform="matrix(0.13580246913580238,0,0,0.13580246913580238,62.333333333333286,0)" xlink:href="#at"/><use transform="matrix(0.13580246913580238,0,0,0.13580246913580238,73.06172839506168,0)" xlink:href="#au"/><use transform="matrix(0.13580246913580238,0,0,0.13580246913580238,97.5061728395061,0)" xlink:href="#av"/><use transform="matrix(0.13580246913580238,0,0,0.13580246913580238,124.66666666666659,0)" xlink:href="#at"/><use transform="matrix(0.13580246913580238,0,0,0.13580246913580238,135.39506172839498,0)" xlink:href="#as"/><use transform="matrix(0.13580246913580238,0,0,0.13580246913580238,162.55555555555546,0)" xlink:href="#aw"/><use transform="matrix(0.13580246913580238,0,0,0.13580246913580238,176.13580246913568,0)" xlink:href="#ax"/><use transform="matrix(0.13580246913580238,0,0,0.13580246913580238,203.29629629629616,0)" xlink:href="#ay"/></g><path fill="#fc9432" d="M232-93c-1 65-40 97-104 97C67 4 28-28 28-90v-158h33c8 89-33 224 67 224 102 0 64-133 71-224h33v155" id="az"/><path fill="#fc9432" d="M135-143c-3-34-86-38-87 0 15 53 115 12 119 90S17 21 10-45l28-5c4 36 97 45 98 0-10-56-113-15-118-90-4-57 82-63 122-42 12 7 21 19 24 35" id="aA"/><path fill="#fc9432" d="M100-194c63 0 86 42 84 106H49c0 40 14 67 53 68 26 1 43-12 49-29l28 8c-11 28-37 45-77 45C44 4 14-33 15-96c1-61 26-98 85-98zm52 81c6-60-76-77-97-28-3 7-6 17-6 28h103" id="aB"/><path fill="#fc9432" d="M114-163C36-179 61-72 57 0H25l-1-190h30c1 12-1 29 2 39 6-27 23-49 58-41v29" id="aC"/><g id="d"><use transform="matrix(0.13580246913580238,0,0,0.13580246913580238,0,0)" xlink:href="#az"/><use transform="matrix(0.13580246913580238,0,0,0.13580246913580238,35.172839506172814,0)" xlink:href="#aA"/><use transform="matrix(0.13580246913580238,0,0,0.13580246913580238,59.61728395061724,0)" xlink:href="#aB"/><use transform="matrix(0.13580246913580238,0,0,0.13580246913580238,86.77777777777771,0)" xlink:href="#aC"/></g><path fill="#fc9432" d="M85-194c31 0 48 13 60 33l-1-100h32l1 261h-30c-2-10 0-23-3-31C134-8 116 4 85 4 32 4 16-35 15-94c0-66 23-100 70-100zm9 24c-40 0-46 34-46 75 0 40 6 74 45 74 42 0 51-32 51-76 0-42-9-74-50-73" id="aD"/><path fill="#fc9432" d="M101-234c-31-9-42 10-38 44h38v23H63V0H32v-167H5v-23h27c-7-52 17-82 69-68v24" id="aE"/><path fill="#fc9432" d="M24-231v-30h32v30H24zM24 0v-190h32V0H24" id="aF"/><path fill="#fc9432" d="M117-194c89-4 53 116 60 194h-32v-121c0-31-8-49-39-48C34-167 62-67 57 0H25l-1-190h30c1 10-1 24 2 32 11-22 29-35 61-36" id="aG"/><g id="e"><use transform="matrix(0.13580246913580238,0,0,0.13580246913580238,0,0)" xlink:href="#aD"/><use transform="matrix(0.13580246913580238,0,0,0.13580246913580238,27.160493827160476,0)" xlink:href="#aB"/><use transform="matrix(0.13580246913580238,0,0,0.13580246913580238,54.32098765432095,0)" xlink:href="#aE"/><use transform="matrix(0.13580246913580238,0,0,0.13580246913580238,67.90123456790118,0)" xlink:href="#aF"/><use transform="matrix(0.13580246913580238,0,0,0.13580246913580238,78.62962962962958,0)" xlink:href="#aG"/><use transform="matrix(0.13580246913580238,0,0,0.13580246913580238,105.79012345679006,0)" xlink:href="#aB"/><use transform="matrix(0.13580246913580238,0,0,0.13580246913580238,132.95061728395052,0)" xlink:href="#aD"/></g><path fill="#fff" d="M232-93c-1 65-40 97-104 97C67 4 28-28 28-90v-158h33c8 89-33 224 67 224 102 0 64-133 71-224h33v155" id="aH"/><path fill="#fff" d="M24-231v-30h32v30H24zM24 0v-190h32V0H24" id="aI"/><path fill="#fff" d="M59-47c-2 24 18 29 38 22v24C64 9 27 4 27-40v-127H5v-23h24l9-43h21v43h35v23H59v120" id="aJ"/><g id="f"><use transform="matrix(0.17901234567901234,0,0,0.17901234567901234,0,0)" xlink:href="#aH"/><use transform="matrix(0.17901234567901234,0,0,0.17901234567901234,46.364197530864196,0)" xlink:href="#ap"/><use transform="matrix(0.17901234567901234,0,0,0.17901234567901234,82.16666666666666,0)" xlink:href="#aI"/><use transform="matrix(0.17901234567901234,0,0,0.17901234567901234,96.30864197530863,0)" xlink:href="#aJ"/></g><path fill="#fff" d="M115-194c55 1 70 41 70 98S169 2 115 4C84 4 66-9 55-30l1 105H24l-1-265h31l2 30c10-21 28-34 59-34zm-8 174c40 0 45-34 45-75s-6-73-45-74c-42 0-51 32-51 76 0 43 10 73 51 73" id="aK"/><g id="g"><use transform="matrix(0.17901234567901234,0,0,0.17901234567901234,0,0)" xlink:href="#aK"/><use transform="matrix(0.17901234567901234,0,0,0.17901234567901234,35.80246913580247,0)" xlink:href="#ai"/><use transform="matrix(0.17901234567901234,0,0,0.17901234567901234,57.10493827160494,0)" xlink:href="#aj"/><use transform="matrix(0.17901234567901234,0,0,0.17901234567901234,92.9074074074074,0)" xlink:href="#ak"/><use transform="matrix(0.17901234567901234,0,0,0.17901234567901234,125.12962962962962,0)" xlink:href="#al"/><use transform="matrix(0.17901234567901234,0,0,0.17901234567901234,160.9320987654321,0)" xlink:href="#am"/><use transform="matrix(0.17901234567901234,0,0,0.17901234567901234,193.1543209876543,0)" xlink:href="#am"/><use transform="matrix(0.17901234567901234,0,0,0.17901234567901234,225.37654320987656,0)" xlink:href="#al"/><use transform="matrix(0.17901234567901234,0,0,0.17901234567901234,261.17901234567904,0)" xlink:href="#am"/></g><path fill="#fff" d="M185-189c-5-48-123-54-124 2 14 75 158 14 163 119 3 78-121 87-175 55-17-10-28-26-33-46l33-7c5 56 141 63 141-1 0-78-155-14-162-118-5-82 145-84 179-34 5 7 8 16 11 25" id="aL"/><path fill="#fff" d="M141-36C126-15 110 5 73 4 37 3 15-17 15-53c-1-64 63-63 125-63 3-35-9-54-41-54-24 1-41 7-42 31l-33-3c5-37 33-52 76-52 45 0 72 20 72 64v82c-1 20 7 32 28 27v20c-31 9-61-2-59-35zM48-53c0 20 12 33 32 33 41-3 63-29 60-74-43 2-92-5-92 41" id="aM"/><path fill="#fff" d="M24 0v-261h32V0H24" id="aN"/><g id="h"><use transform="matrix(0.12345679012345664,0,0,0.12345679012345664,0,0)" xlink:href="#aL"/><use transform="matrix(0.12345679012345664,0,0,0.12345679012345664,29.629629629629594,0)" xlink:href="#aJ"/><use transform="matrix(0.12345679012345664,0,0,0.12345679012345664,41.97530864197526,0)" xlink:href="#aM"/><use transform="matrix(0.12345679012345664,0,0,0.12345679012345664,66.66666666666659,0)" xlink:href="#aI"/><use transform="matrix(0.12345679012345664,0,0,0.12345679012345664,76.41975308641966,0)" xlink:href="#ap"/><use transform="matrix(0.12345679012345664,0,0,0.12345679012345664,101.11111111111099,0)" xlink:href="#aN"/><use transform="matrix(0.12345679012345664,0,0,0.12345679012345664,110.86419753086406,0)" xlink:href="#al"/><use transform="matrix(0.12345679012345664,0,0,0.12345679012345664,135.5555555555554,0)" xlink:href="#am"/><use transform="matrix(0.12345679012345664,0,0,0.12345679012345664,157.7777777777776,0)" xlink:href="#am"/></g><g id="i"><use transform="matrix(0.12345679012345664,0,0,0.12345679012345664,0,0)" xlink:href="#am"/><use transform="matrix(0.12345679012345664,0,0,0.12345679012345664,22.222222222222197,0)" xlink:href="#aJ"/><use transform="matrix(0.12345679012345664,0,0,0.12345679012345664,34.56790123456786,0)" xlink:href="#al"/><use transform="matrix(0.12345679012345664,0,0,0.12345679012345664,59.259259259259196,0)" xlink:href="#al"/><use transform="matrix(0.12345679012345664,0,0,0.12345679012345664,83.95061728395052,0)" xlink:href="#aN"/></g><path fill="#fff" d="M210-169c-67 3-38 105-44 169h-31v-121c0-29-5-50-35-48C34-165 62-65 56 0H25l-1-190h30c1 10-1 24 2 32 10-44 99-50 107 0 11-21 27-35 58-36 85-2 47 119 55 194h-31v-121c0-29-5-49-35-48" id="aO"/><path fill="#fff" d="M84 4C-5 8 30-112 23-190h32v120c0 31 7 50 39 49 72-2 45-101 50-169h31l1 190h-30c-1-10 1-25-2-33-11 22-28 36-60 37" id="aP"/><path fill="#fff" d="M101-234c-31-9-42 10-38 44h38v23H63V0H32v-167H5v-23h27c-7-52 17-82 69-68v24" id="aQ"/><g id="j"><use transform="matrix(0.12345679012345664,0,0,0.12345679012345664,0,0)" xlink:href="#aO"/><use transform="matrix(0.12345679012345664,0,0,0.12345679012345664,36.91358024691354,0)" xlink:href="#aM"/><use transform="matrix(0.12345679012345664,0,0,0.12345679012345664,61.604938271604865,0)" xlink:href="#ap"/><use transform="matrix(0.12345679012345664,0,0,0.12345679012345664,86.29629629629619,0)" xlink:href="#aP"/><use transform="matrix(0.12345679012345664,0,0,0.12345679012345664,110.98765432098752,0)" xlink:href="#aQ"/><use transform="matrix(0.12345679012345664,0,0,0.12345679012345664,123.33333333333319,0)" xlink:href="#aM"/><use transform="matrix(0.12345679012345664,0,0,0.12345679012345664,148.0246913580245,0)" xlink:href="#ak"/><use transform="matrix(0.12345679012345664,0,0,0.12345679012345664,170.2469135802467,0)" xlink:href="#aJ"/><use transform="matrix(0.12345679012345664,0,0,0.12345679012345664,182.59259259259238,0)" xlink:href="#aP"/><use transform="matrix(0.12345679012345664,0,0,0.12345679012345664,207.28395061728372,0)" xlink:href="#ai"/><use transform="matrix(0.12345679012345664,0,0,0.12345679012345664,221.97530864197506,0)" xlink:href="#aI"/><use transform="matrix(0.12345679012345664,0,0,0.12345679012345664,231.72839506172812,0)" xlink:href="#ap"/><use transform="matrix(0.12345679012345664,0,0,0.12345679012345664,256.41975308641946,0)" xlink:href="#ao"/></g><path fill="#fff" d="M87 75C49 33 22-17 22-94c0-76 28-126 65-167h31c-38 41-64 92-64 168S80 34 118 75H87" id="aR"/><path fill="#fff" d="M30-248c118-7 216 8 213 122C240-48 200 0 122 0H30v-248zM63-27c89 8 146-16 146-99s-60-101-146-95v194" id="aS"/><path fill="#fff" d="M153-248C145-148 188 4 80 4 36 3 13-21 6-62l32-5c4 25 16 42 43 43 27 0 39-20 39-49v-147H72v-28h81" id="aT"/><path fill="#fff" d="M33-261c38 41 65 92 65 168S71 34 33 75H2C39 34 66-17 66-93S39-220 2-261h31" id="aU"/><g id="k"><use transform="matrix(0.12345679012345664,0,0,0.12345679012345664,0,0)" xlink:href="#aR"/><use transform="matrix(0.12345679012345664,0,0,0.12345679012345664,14.691358024691342,0)" xlink:href="#aS"/><use transform="matrix(0.12345679012345664,0,0,0.12345679012345664,46.666666666666615,0)" xlink:href="#aT"/><use transform="matrix(0.12345679012345664,0,0,0.12345679012345664,68.88888888888881,0)" xlink:href="#aU"/></g><path fill="#fff" d="M160-131c35 5 61 23 61 61C221 17 115-2 30 0v-248c76 3 177-17 177 60 0 33-19 50-47 57zm-97-11c50-1 110 9 110-42 0-47-63-36-110-37v79zm0 115c55-2 124 14 124-45 0-56-70-42-124-44v89" id="aV"/><g id="l"><use transform="matrix(0.12345679012345664,0,0,0.12345679012345664,0,0)" xlink:href="#aV"/><use transform="matrix(0.12345679012345664,0,0,0.12345679012345664,29.629629629629594,0)" xlink:href="#aj"/><use transform="matrix(0.12345679012345664,0,0,0.12345679012345664,54.32098765432092,0)" xlink:href="#aJ"/><use transform="matrix(0.12345679012345664,0,0,0.12345679012345664,66.66666666666659,0)" xlink:href="#aJ"/><use transform="matrix(0.12345679012345664,0,0,0.12345679012345664,79.01234567901226,0)" xlink:href="#aN"/><use transform="matrix(0.12345679012345664,0,0,0.12345679012345664,88.76543209876533,0)" xlink:href="#al"/></g><path fill="#fff" d="M115-194c53 0 69 39 70 98 0 66-23 100-70 100C84 3 66-7 56-30L54 0H23l1-261h32v101c10-23 28-34 59-34zm-8 174c40 0 45-34 45-75 0-40-5-75-45-74-42 0-51 32-51 76 0 43 10 73 51 73" id="aW"/><path fill="#fff" d="M179-190L93 31C79 59 56 82 12 73V49c39 6 53-20 64-50L1-190h34L92-34l54-156h33" id="aX"/><g id="m"><use transform="matrix(0.12345679012345664,0,0,0.12345679012345664,0,0)" xlink:href="#aM"/><use transform="matrix(0.12345679012345664,0,0,0.12345679012345664,24.69135802469133,0)" xlink:href="#am"/><use transform="matrix(0.12345679012345664,0,0,0.12345679012345664,46.913580246913526,0)" xlink:href="#am"/><use transform="matrix(0.12345679012345664,0,0,0.12345679012345664,69.13580246913573,0)" xlink:href="#al"/><use transform="matrix(0.12345679012345664,0,0,0.12345679012345664,93.82716049382705,0)" xlink:href="#aO"/><use transform="matrix(0.12345679012345664,0,0,0.12345679012345664,130.7407407407406,0)" xlink:href="#aW"/><use transform="matrix(0.12345679012345664,0,0,0.12345679012345664,155.43209876543193,0)" xlink:href="#aN"/><use transform="matrix(0.12345679012345664,0,0,0.12345679012345664,165.185185185185,0)" xlink:href="#aX"/></g><g id="n"><use transform="matrix(0.12345679012345664,0,0,0.12345679012345664,0,0)" xlink:href="#ah"/><use transform="matrix(0.12345679012345664,0,0,0.12345679012345664,29.629629629629594,0)" xlink:href="#aN"/><use transform="matrix(0.12345679012345664,0,0,0.12345679012345664,39.382716049382665,0)" xlink:href="#aM"/><use transform="matrix(0.12345679012345664,0,0,0.12345679012345664,64.07407407407399,0)" xlink:href="#am"/><use transform="matrix(0.12345679012345664,0,0,0.12345679012345664,86.29629629629619,0)" xlink:href="#aJ"/><use transform="matrix(0.12345679012345664,0,0,0.12345679012345664,98.64197530864186,0)" xlink:href="#aI"/><use transform="matrix(0.12345679012345664,0,0,0.12345679012345664,108.39506172839494,0)" xlink:href="#ak"/></g><g id="o"><use transform="matrix(0.12345679012345664,0,0,0.12345679012345664,0,0)" xlink:href="#aO"/><use transform="matrix(0.12345679012345664,0,0,0.12345679012345664,36.91358024691354,0)" xlink:href="#aM"/><use transform="matrix(0.12345679012345664,0,0,0.12345679012345664,61.604938271604865,0)" xlink:href="#ap"/><use transform="matrix(0.12345679012345664,0,0,0.12345679012345664,86.29629629629619,0)" xlink:href="#aP"/><use transform="matrix(0.12345679012345664,0,0,0.12345679012345664,110.98765432098752,0)" xlink:href="#aQ"/><use transform="matrix(0.12345679012345664,0,0,0.12345679012345664,123.33333333333319,0)" xlink:href="#aM"/><use transform="matrix(0.12345679012345664,0,0,0.12345679012345664,148.0246913580245,0)" xlink:href="#ak"/><use transform="matrix(0.12345679012345664,0,0,0.12345679012345664,170.2469135802467,0)" xlink:href="#aJ"/><use transform="matrix(0.12345679012345664,0,0,0.12345679012345664,182.59259259259238,0)" xlink:href="#aP"/><use transform="matrix(0.12345679012345664,0,0,0.12345679012345664,207.28395061728372,0)" xlink:href="#ai"/><use transform="matrix(0.12345679012345664,0,0,0.12345679012345664,221.97530864197506,0)" xlink:href="#al"/><use transform="matrix(0.12345679012345664,0,0,0.12345679012345664,246.6666666666664,0)" xlink:href="#ai"/></g><path fill="#fc9432" d="M23 0v-37h61v-169l-59 37v-38l62-41h46v211h57V0H23" id="aY"/><use transform="matrix(0.0864197530864197,0,0,0.0864197530864197,0,0)" xlink:href="#aY" id="p"/><path fill="#333" d="M147 0L96-86 75-71V0H25v-261h50v150l67-79h53l-66 74L201 0h-54" id="aZ"/><path fill="#333" d="M195-6C206 82 75 100 31 46c-4-6-6-13-8-21l49-6c3 16 16 24 34 25 40 0 42-37 40-79-11 22-30 35-61 35-53 0-70-43-70-97 0-56 18-96 73-97 30 0 46 14 59 34l2-30h47zm-90-29c32 0 41-27 41-63 0-35-9-62-40-62-32 0-39 29-40 63 0 36 9 62 39 62" id="ba"/><g id="q"><use transform="matrix(0.0864197530864197,0,0,0.0864197530864197,0,0)" xlink:href="#aZ"/><use transform="matrix(0.0864197530864197,0,0,0.0864197530864197,17.283950617283942,0)" xlink:href="#ba"/></g><path fill="#333" d="M169-182c-1-43-94-46-97-3 18 66 151 10 154 114 3 95-165 93-204 36-6-8-10-19-12-30l50-8c3 46 112 56 116 5-17-69-150-10-154-114-4-87 153-88 188-35 5 8 8 18 10 28" id="bb"/><path fill="#333" d="M115-3C79 11 28 4 28-45v-112H4v-33h27l15-45h31v45h36v33H77v99c-1 23 16 31 38 25v30" id="bc"/><path fill="#333" d="M133-34C117-15 103 5 69 4 32 3 11-16 11-54c-1-60 55-63 116-61 1-26-3-47-28-47-18 1-26 9-28 27l-52-2c7-38 36-58 82-57s74 22 75 68l1 82c-1 14 12 18 25 15v27c-30 8-71 5-69-32zm-48 3c29 0 43-24 42-57-32 0-66-3-65 30 0 17 8 27 23 27" id="bd"/><path fill="#333" d="M25-224v-37h50v37H25zM25 0v-190h50V0H25" id="be"/><path fill="#333" d="M135-194c87-1 58 113 63 194h-50c-7-57 23-157-34-157-59 0-34 97-39 157H25l-1-190h47c2 12-1 28 3 38 12-26 28-41 61-42" id="bf"/><path fill="#333" d="M25 0v-261h50V0H25" id="bg"/><path fill="#333" d="M185-48c-13 30-37 53-82 52C43 2 14-33 14-96s30-98 90-98c62 0 83 45 84 108H66c0 31 8 55 39 56 18 0 30-7 34-22zm-45-69c5-46-57-63-70-21-2 6-4 13-4 21h74" id="bh"/><path fill="#333" d="M137-138c1-29-70-34-71-4 15 46 118 7 119 86 1 83-164 76-172 9l43-7c4 19 20 25 44 25 33 8 57-30 24-41C81-84 22-81 20-136c-2-80 154-74 161-7" id="bi"/><g id="r"><use transform="matrix(0.0864197530864197,0,0,0.0864197530864197,0,0)" xlink:href="#bb"/><use transform="matrix(0.0864197530864197,0,0,0.0864197530864197,20.74074074074073,0)" xlink:href="#bc"/><use transform="matrix(0.0864197530864197,0,0,0.0864197530864197,31.024691358024675,0)" xlink:href="#bd"/><use transform="matrix(0.0864197530864197,0,0,0.0864197530864197,48.30864197530862,0)" xlink:href="#be"/><use transform="matrix(0.0864197530864197,0,0,0.0864197530864197,56.9506172839506,0)" xlink:href="#bf"/><use transform="matrix(0.0864197530864197,0,0,0.0864197530864197,75.8765432098765,0)" xlink:href="#bg"/><use transform="matrix(0.0864197530864197,0,0,0.0864197530864197,84.51851851851848,0)" xlink:href="#bh"/><use transform="matrix(0.0864197530864197,0,0,0.0864197530864197,101.80246913580244,0)" xlink:href="#bi"/><use transform="matrix(0.0864197530864197,0,0,0.0864197530864197,119.08641975308637,0)" xlink:href="#bi"/></g><g id="s"><use transform="matrix(0.0864197530864197,0,0,0.0864197530864197,0,0)" xlink:href="#bi"/><use transform="matrix(0.0864197530864197,0,0,0.0864197530864197,17.283950617283942,0)" xlink:href="#bc"/><use transform="matrix(0.0864197530864197,0,0,0.0864197530864197,27.567901234567888,0)" xlink:href="#bh"/><use transform="matrix(0.0864197530864197,0,0,0.0864197530864197,44.85185185185184,0)" xlink:href="#bh"/><use transform="matrix(0.0864197530864197,0,0,0.0864197530864197,62.135802469135776,0)" xlink:href="#bg"/></g><path fill="#333" d="M24-248c93 1 206-16 204 79-1 75-69 88-152 82V0H24v-248zm52 121c47 0 100 7 100-41 0-47-54-39-100-39v80" id="bj"/><path fill="#333" d="M190-63c-7 42-38 67-86 67-59 0-84-38-90-98-12-110 154-137 174-36l-49 2c-2-19-15-32-35-32-30 0-35 28-38 64-6 74 65 87 74 30" id="bk"/><g id="t"><use transform="matrix(0.0864197530864197,0,0,0.0864197530864197,0,0)" xlink:href="#bj"/><use transform="matrix(0.0864197530864197,0,0,0.0864197530864197,20.74074074074073,0)" xlink:href="#bg"/><use transform="matrix(0.0864197530864197,0,0,0.0864197530864197,29.3827160493827,0)" xlink:href="#bd"/><use transform="matrix(0.0864197530864197,0,0,0.0864197530864197,46.66666666666664,0)" xlink:href="#bi"/><use transform="matrix(0.0864197530864197,0,0,0.0864197530864197,63.950617283950585,0)" xlink:href="#bc"/><use transform="matrix(0.0864197530864197,0,0,0.0864197530864197,74.23456790123453,0)" xlink:href="#be"/><use transform="matrix(0.0864197530864197,0,0,0.0864197530864197,82.8765432098765,0)" xlink:href="#bk"/></g><path fill="#333" d="M182-130c37 4 62 22 62 59C244 23 116-4 24 0v-248c84 5 203-23 205 63 0 31-19 50-47 55zM76-148c40-3 101 13 101-30 0-44-60-28-101-31v61zm0 110c48-3 116 14 116-37 0-48-69-32-116-35v72" id="bl"/><path fill="#333" d="M110-194c64 0 96 36 96 99 0 64-35 99-97 99-61 0-95-36-95-99 0-62 34-99 96-99zm-1 164c35 0 45-28 45-65 0-40-10-65-43-65-34 0-45 26-45 65 0 36 10 65 43 65" id="bm"/><g id="u"><use transform="matrix(0.0864197530864197,0,0,0.0864197530864197,0,0)" xlink:href="#bl"/><use transform="matrix(0.0864197530864197,0,0,0.0864197530864197,22.382716049382704,0)" xlink:href="#bm"/><use transform="matrix(0.0864197530864197,0,0,0.0864197530864197,41.30864197530862,0)" xlink:href="#bc"/><use transform="matrix(0.0864197530864197,0,0,0.0864197530864197,51.59259259259257,0)" xlink:href="#bc"/><use transform="matrix(0.0864197530864197,0,0,0.0864197530864197,61.87654320987652,0)" xlink:href="#bg"/><use transform="matrix(0.0864197530864197,0,0,0.0864197530864197,70.51851851851849,0)" xlink:href="#bh"/></g><path fill="#fc9432" d="M101-251c68 0 84 54 84 127C185-50 166 4 99 4S15-52 14-124c-1-75 17-127 87-127zm-1 216c37-5 36-46 36-89s4-89-36-89c-39 0-36 45-36 89 0 43-3 85 36 89" id="bn"/><path fill="#fc9432" d="M24 0v-54h51V0H24" id="bo"/><g id="v"><use transform="matrix(0.0864197530864197,0,0,0.0864197530864197,0,0)" xlink:href="#bn"/><use transform="matrix(0.0864197530864197,0,0,0.0864197530864197,17.283950617283942,0)" xlink:href="#bo"/><use transform="matrix(0.0864197530864197,0,0,0.0864197530864197,25.925925925925913,0)" xlink:href="#aY"/></g><path fill="#333" d="M88-194c31-1 46 15 58 34l-1-101h50l1 261h-48c-2-10 0-23-3-31C134-8 116 4 84 4 32 4 16-41 15-95c0-56 19-97 73-99zm17 164c33 0 40-30 41-66 1-37-9-64-41-64s-38 30-39 65c0 43 13 65 39 65" id="bp"/><g id="w"><use transform="matrix(0.0864197530864197,0,0,0.0864197530864197,0,0)" xlink:href="#bl"/><use transform="matrix(0.0864197530864197,0,0,0.0864197530864197,22.382716049382704,0)" xlink:href="#bd"/><use transform="matrix(0.0864197530864197,0,0,0.0864197530864197,39.66666666666664,0)" xlink:href="#bp"/></g><path fill="#333" d="M85 4C-2 5 27-109 22-190h50c7 57-23 150 33 157 60-5 35-97 40-157h50l1 190h-47c-2-12 1-28-3-38-12 25-28 42-61 42" id="bq"/><path fill="#333" d="M121-226c-27-7-43 5-38 36h38v33H83V0H34v-157H6v-33h28c-9-59 32-81 87-68v32" id="br"/><g id="x"><use transform="matrix(0.0864197530864197,0,0,0.0864197530864197,0,0)" xlink:href="#bi"/><use transform="matrix(0.0864197530864197,0,0,0.0864197530864197,17.283950617283942,0)" xlink:href="#bc"/><use transform="matrix(0.0864197530864197,0,0,0.0864197530864197,27.567901234567888,0)" xlink:href="#bq"/><use transform="matrix(0.0864197530864197,0,0,0.0864197530864197,46.493827160493815,0)" xlink:href="#br"/><use transform="matrix(0.0864197530864197,0,0,0.0864197530864197,56.77777777777776,0)" xlink:href="#br"/></g><use transform="matrix(0.0864197530864197,0,0,0.0864197530864197,0,0)" xlink:href="#aY" id="y"/><path fill="#3a414a" d="M147 0L96-86 75-71V0H25v-261h50v150l67-79h53l-66 74L201 0h-54" id="bs"/><path fill="#3a414a" d="M195-6C206 82 75 100 31 46c-4-6-6-13-8-21l49-6c3 16 16 24 34 25 40 0 42-37 40-79-11 22-30 35-61 35-53 0-70-43-70-97 0-56 18-96 73-97 30 0 46 14 59 34l2-30h47zm-90-29c32 0 41-27 41-63 0-35-9-62-40-62-32 0-39 29-40 63 0 36 9 62 39 62" id="bt"/><g id="z"><use transform="matrix(0.0864197530864197,0,0,0.0864197530864197,0,0)" xlink:href="#bs"/><use transform="matrix(0.0864197530864197,0,0,0.0864197530864197,17.283950617283942,0)" xlink:href="#bt"/></g><path fill="#333" d="M147 0H94L2-248h55l64 206c17-72 42-137 63-206h54" id="bu"/><path fill="#333" d="M135-150c-39-12-60 13-60 57V0H25l-1-190h47c2 13-1 29 3 40 6-28 27-53 61-41v41" id="bv"/><g id="A"><use transform="matrix(0.0864197530864197,0,0,0.0864197530864197,0,0)" xlink:href="#bu"/><use transform="matrix(0.0864197530864197,0,0,0.0864197530864197,20.135802469135793,0)" xlink:href="#be"/><use transform="matrix(0.0864197530864197,0,0,0.0864197530864197,28.77777777777776,0)" xlink:href="#bv"/><use transform="matrix(0.0864197530864197,0,0,0.0864197530864197,40.87654320987652,0)" xlink:href="#ba"/><use transform="matrix(0.0864197530864197,0,0,0.0864197530864197,59.80246913580244,0)" xlink:href="#be"/><use transform="matrix(0.0864197530864197,0,0,0.0864197530864197,68.44444444444441,0)" xlink:href="#bf"/></g><path fill="#333" d="M220-157c-53 9-28 100-34 157h-49v-107c1-27-5-49-29-50C55-147 81-57 75 0H25l-1-190h47c2 12-1 28 3 38 10-53 101-56 108 0 13-22 24-43 59-42 82 1 51 116 57 194h-49v-107c-1-25-5-48-29-50" id="bw"/><g id="B"><use transform="matrix(0.0864197530864197,0,0,0.0864197530864197,0,0)" xlink:href="#bw"/><use transform="matrix(0.0864197530864197,0,0,0.0864197530864197,27.654320987654305,0)" xlink:href="#bh"/><use transform="matrix(0.0864197530864197,0,0,0.0864197530864197,44.93827160493825,0)" xlink:href="#bc"/><use transform="matrix(0.0864197530864197,0,0,0.0864197530864197,55.2222222222222,0)" xlink:href="#bd"/><use transform="matrix(0.0864197530864197,0,0,0.0864197530864197,72.50617283950615,0)" xlink:href="#bg"/><use transform="matrix(0.0864197530864197,0,0,0.0864197530864197,81.14814814814812,0)" xlink:href="#bi"/></g><path fill="#333" d="M67-125c0 53 21 87 73 88 37 1 54-22 65-47l45 17C233-25 199 4 140 4 58 4 20-42 15-125 8-235 124-281 211-232c18 10 29 29 36 50l-46 12c-8-25-30-41-62-41-52 0-71 34-72 86" id="bx"/><g id="C"><use transform="matrix(0.0864197530864197,0,0,0.0864197530864197,0,0)" xlink:href="#bx"/><use transform="matrix(0.0864197530864197,0,0,0.0864197530864197,22.382716049382704,0)" xlink:href="#bv"/><use transform="matrix(0.0864197530864197,0,0,0.0864197530864197,34.48148148148147,0)" xlink:href="#bq"/><use transform="matrix(0.0864197530864197,0,0,0.0864197530864197,53.407407407407376,0)" xlink:href="#bp"/><use transform="matrix(0.0864197530864197,0,0,0.0864197530864197,72.3333333333333,0)" xlink:href="#bh"/></g><g id="D"><use transform="matrix(0.0864197530864197,0,0,0.0864197530864197,0,0)" xlink:href="#bm"/><use transform="matrix(0.0864197530864197,0,0,0.0864197530864197,18.925925925925917,0)" xlink:href="#be"/><use transform="matrix(0.0864197530864197,0,0,0.0864197530864197,27.567901234567888,0)" xlink:href="#bg"/></g><path fill="#fc9432" d="M128-127c34 4 56 21 59 58 7 91-148 94-172 28-4-9-6-17-7-26l51-5c1 24 16 35 40 36 23 0 39-12 38-36-1-31-31-36-65-34v-40c32 2 59-3 59-33 0-20-13-33-34-33s-33 13-35 32l-50-3c6-44 37-68 86-68 50 0 83 20 83 66 0 35-22 52-53 58" id="by"/><use transform="matrix(0.0864197530864197,0,0,0.0864197530864197,0,0)" xlink:href="#by" id="E"/><path fill="#fc9432" d="M182-182c0 78-84 86-111 141h115V0H12c-6-101 99-100 120-180 1-22-12-31-33-32-23 0-32 14-35 34l-49-3c5-45 32-70 84-70 51 0 83 22 83 69" id="bz"/><use transform="matrix(0.0864197530864197,0,0,0.0864197530864197,0,0)" xlink:href="#bz" id="F"/><g id="G"><use transform="matrix(0.0864197530864197,0,0,0.0864197530864197,0,0)" xlink:href="#aZ"/><use transform="matrix(0.0864197530864197,0,0,0.0864197530864197,17.283950617283942,0)" xlink:href="#ba"/></g><g id="H"><use transform="matrix(0.0864197530864197,0,0,0.0864197530864197,0,0)" xlink:href="#bn"/><use transform="matrix(0.0864197530864197,0,0,0.0864197530864197,17.283950617283942,0)" xlink:href="#bo"/><use transform="matrix(0.0864197530864197,0,0,0.0864197530864197,25.925925925925913,0)" xlink:href="#by"/></g><g id="I"><use transform="matrix(0.0864197530864197,0,0,0.0864197530864197,0,0)" xlink:href="#bb"/><use transform="matrix(0.0864197530864197,0,0,0.0864197530864197,20.74074074074073,0)" xlink:href="#bc"/><use transform="matrix(0.0864197530864197,0,0,0.0864197530864197,31.024691358024675,0)" xlink:href="#bd"/><use transform="matrix(0.0864197530864197,0,0,0.0864197530864197,48.30864197530862,0)" xlink:href="#be"/><use transform="matrix(0.0864197530864197,0,0,0.0864197530864197,56.9506172839506,0)" xlink:href="#bg"/><use transform="matrix(0.0864197530864197,0,0,0.0864197530864197,65.59259259259257,0)" xlink:href="#bh"/><use transform="matrix(0.0864197530864197,0,0,0.0864197530864197,82.8765432098765,0)" xlink:href="#bi"/><use transform="matrix(0.0864197530864197,0,0,0.0864197530864197,100.16049382716047,0)" xlink:href="#bi"/></g><path fill="#fc9432" d="M139-81c0-46-55-55-73-27H18l9-140h149v37H72l-4 63c44-38 133-4 122 66C201 21 21 35 11-62l49-4c5 18 15 30 39 30 26 0 40-18 40-45" id="bA"/><g id="J"><use transform="matrix(0.0864197530864197,0,0,0.0864197530864197,0,0)" xlink:href="#bn"/><use transform="matrix(0.0864197530864197,0,0,0.0864197530864197,17.283950617283942,0)" xlink:href="#bo"/><use transform="matrix(0.0864197530864197,0,0,0.0864197530864197,25.925925925925913,0)" xlink:href="#bz"/><use transform="matrix(0.0864197530864197,0,0,0.0864197530864197,43.20987654320986,0)" xlink:href="#bA"/></g><g id="K"><use transform="matrix(0.17901234567901234,0,0,0.17901234567901234,0,0)" xlink:href="#ah"/><use transform="matrix(0.17901234567901234,0,0,0.17901234567901234,42.96296296296296,0)" xlink:href="#ai"/><use transform="matrix(0.17901234567901234,0,0,0.17901234567901234,64.26543209876543,0)" xlink:href="#aj"/><use transform="matrix(0.17901234567901234,0,0,0.17901234567901234,100.0679012345679,0)" xlink:href="#aq"/><use transform="matrix(0.17901234567901234,0,0,0.17901234567901234,135.87037037037038,0)" xlink:href="#aP"/><use transform="matrix(0.17901234567901234,0,0,0.17901234567901234,171.67283950617286,0)" xlink:href="#ak"/><use transform="matrix(0.17901234567901234,0,0,0.17901234567901234,203.8950617283951,0)" xlink:href="#aJ"/></g><g id="L"><use transform="matrix(0.17901234567901234,0,0,0.17901234567901234,0,0)" xlink:href="#aL"/><use transform="matrix(0.17901234567901234,0,0,0.17901234567901234,42.96296296296296,0)" xlink:href="#aX"/><use transform="matrix(0.17901234567901234,0,0,0.17901234567901234,75.18518518518519,0)" xlink:href="#am"/><use transform="matrix(0.17901234567901234,0,0,0.17901234567901234,107.40740740740742,0)" xlink:href="#aJ"/><use transform="matrix(0.17901234567901234,0,0,0.17901234567901234,125.30864197530866,0)" xlink:href="#al"/><use transform="matrix(0.17901234567901234,0,0,0.17901234567901234,161.11111111111114,0)" xlink:href="#aO"/></g><path fill="#ba23f6" d="M23 0v-37h61v-169l-59 37v-38l62-41h46v211h57V0H23" id="bB"/><path fill="#ba23f6" d="M24 0v-54h51V0H24" id="bC"/><path fill="#ba23f6" d="M139-81c0-46-55-55-73-27H18l9-140h149v37H72l-4 63c44-38 133-4 122 66C201 21 21 35 11-62l49-4c5 18 15 30 39 30 26 0 40-18 40-45" id="bD"/><g id="M"><use transform="matrix(0.0864197530864197,0,0,0.0864197530864197,0,0)" xlink:href="#bB"/><use transform="matrix(0.0864197530864197,0,0,0.0864197530864197,17.283950617283942,0)" xlink:href="#bC"/><use transform="matrix(0.0864197530864197,0,0,0.0864197530864197,25.925925925925913,0)" xlink:href="#bD"/></g><g id="N"><use transform="matrix(0.0864197530864197,0,0,0.0864197530864197,0,0)" xlink:href="#aZ"/><use transform="matrix(0.0864197530864197,0,0,0.0864197530864197,17.283950617283942,0)" xlink:href="#ba"/></g><g id="O"><use transform="matrix(0.0864197530864197,0,0,0.0864197530864197,0,0)" xlink:href="#bb"/><use transform="matrix(0.0864197530864197,0,0,0.0864197530864197,20.74074074074073,0)" xlink:href="#bc"/><use transform="matrix(0.0864197530864197,0,0,0.0864197530864197,31.024691358024675,0)" xlink:href="#bd"/><use transform="matrix(0.0864197530864197,0,0,0.0864197530864197,48.30864197530862,0)" xlink:href="#be"/><use transform="matrix(0.0864197530864197,0,0,0.0864197530864197,56.9506172839506,0)" xlink:href="#bg"/><use transform="matrix(0.0864197530864197,0,0,0.0864197530864197,65.59259259259257,0)" xlink:href="#bh"/><use transform="matrix(0.0864197530864197,0,0,0.0864197530864197,82.8765432098765,0)" xlink:href="#bi"/><use transform="matrix(0.0864197530864197,0,0,0.0864197530864197,100.16049382716047,0)" xlink:href="#bi"/></g><g id="P"><use transform="matrix(0.0864197530864197,0,0,0.0864197530864197,0,0)" xlink:href="#bi"/><use transform="matrix(0.0864197530864197,0,0,0.0864197530864197,17.283950617283942,0)" xlink:href="#bc"/><use transform="matrix(0.0864197530864197,0,0,0.0864197530864197,27.567901234567888,0)" xlink:href="#bh"/><use transform="matrix(0.0864197530864197,0,0,0.0864197530864197,44.85185185185184,0)" xlink:href="#bh"/><use transform="matrix(0.0864197530864197,0,0,0.0864197530864197,62.135802469135776,0)" xlink:href="#bg"/></g><path fill="#ba23f6" d="M182-182c0 78-84 86-111 141h115V0H12c-6-101 99-100 120-180 1-22-12-31-33-32-23 0-32 14-35 34l-49-3c5-45 32-70 84-70 51 0 83 22 83 69" id="bE"/><g id="Q"><use transform="matrix(0.0864197530864197,0,0,0.0864197530864197,0,0)" xlink:href="#bB"/><use transform="matrix(0.0864197530864197,0,0,0.0864197530864197,17.283950617283942,0)" xlink:href="#bC"/><use transform="matrix(0.0864197530864197,0,0,0.0864197530864197,25.925925925925913,0)" xlink:href="#bE"/><use transform="matrix(0.0864197530864197,0,0,0.0864197530864197,43.20987654320986,0)" xlink:href="#bD"/></g><g id="R"><use transform="matrix(0.0864197530864197,0,0,0.0864197530864197,0,0)" xlink:href="#bj"/><use transform="matrix(0.0864197530864197,0,0,0.0864197530864197,20.74074074074073,0)" xlink:href="#bg"/><use transform="matrix(0.0864197530864197,0,0,0.0864197530864197,29.3827160493827,0)" xlink:href="#bd"/><use transform="matrix(0.0864197530864197,0,0,0.0864197530864197,46.66666666666664,0)" xlink:href="#bi"/><use transform="matrix(0.0864197530864197,0,0,0.0864197530864197,63.950617283950585,0)" xlink:href="#bc"/><use transform="matrix(0.0864197530864197,0,0,0.0864197530864197,74.23456790123453,0)" xlink:href="#be"/><use transform="matrix(0.0864197530864197,0,0,0.0864197530864197,82.8765432098765,0)" xlink:href="#bk"/></g><use transform="matrix(0.0864197530864197,0,0,0.0864197530864197,0,0)" xlink:href="#bA" id="S"/><path fill="#ba23f6" d="M101-251c68 0 84 54 84 127C185-50 166 4 99 4S15-52 14-124c-1-75 17-127 87-127zm-1 216c37-5 36-46 36-89s4-89-36-89c-39 0-36 45-36 89 0 43-3 85 36 89" id="bF"/><g id="T"><use transform="matrix(0.0864197530864197,0,0,0.0864197530864197,0,0)" xlink:href="#bF"/><use transform="matrix(0.0864197530864197,0,0,0.0864197530864197,17.283950617283942,0)" xlink:href="#bC"/><use transform="matrix(0.0864197530864197,0,0,0.0864197530864197,25.925925925925913,0)" xlink:href="#bD"/></g><g id="U"><use transform="matrix(0.0864197530864197,0,0,0.0864197530864197,0,0)" xlink:href="#bB"/><use transform="matrix(0.0864197530864197,0,0,0.0864197530864197,17.283950617283942,0)" xlink:href="#bC"/><use transform="matrix(0.0864197530864197,0,0,0.0864197530864197,25.925925925925913,0)" xlink:href="#bD"/></g><g id="V"><use transform="matrix(0.0864197530864197,0,0,0.0864197530864197,0,0)" xlink:href="#bB"/><use transform="matrix(0.0864197530864197,0,0,0.0864197530864197,17.283950617283942,0)" xlink:href="#bC"/><use transform="matrix(0.0864197530864197,0,0,0.0864197530864197,25.925925925925913,0)" xlink:href="#bE"/><use transform="matrix(0.0864197530864197,0,0,0.0864197530864197,43.20987654320986,0)" xlink:href="#bD"/></g><path fill="#ba23f6" d="M165-50V0h-47v-50H5v-38l105-160h55v161h33v37h-33zm-47-37l2-116L46-87h72" id="bG"/><g id="W"><use transform="matrix(0.0864197530864197,0,0,0.0864197530864197,0,0)" xlink:href="#bG"/><use transform="matrix(0.0864197530864197,0,0,0.0864197530864197,17.283950617283942,0)" xlink:href="#bC"/><use transform="matrix(0.0864197530864197,0,0,0.0864197530864197,25.925925925925913,0)" xlink:href="#bD"/></g><g id="X"><use transform="matrix(0.0864197530864197,0,0,0.0864197530864197,0,0)" xlink:href="#bl"/><use transform="matrix(0.0864197530864197,0,0,0.0864197530864197,22.382716049382704,0)" xlink:href="#bd"/><use transform="matrix(0.0864197530864197,0,0,0.0864197530864197,39.66666666666664,0)" xlink:href="#bp"/></g><g id="Y"><use transform="matrix(0.0864197530864197,0,0,0.0864197530864197,0,0)" xlink:href="#bi"/><use transform="matrix(0.0864197530864197,0,0,0.0864197530864197,17.283950617283942,0)" xlink:href="#bc"/><use transform="matrix(0.0864197530864197,0,0,0.0864197530864197,27.567901234567888,0)" xlink:href="#bq"/><use transform="matrix(0.0864197530864197,0,0,0.0864197530864197,46.493827160493815,0)" xlink:href="#br"/><use transform="matrix(0.0864197530864197,0,0,0.0864197530864197,56.77777777777776,0)" xlink:href="#br"/></g><g id="Z"><use transform="matrix(0.0864197530864197,0,0,0.0864197530864197,0,0)" xlink:href="#bE"/><use transform="matrix(0.0864197530864197,0,0,0.0864197530864197,17.283950617283942,0)" xlink:href="#bC"/><use transform="matrix(0.0864197530864197,0,0,0.0864197530864197,25.925925925925913,0)" xlink:href="#bD"/></g><path fill="#333" d="M24 0v-248h195v40H76v63h132v40H76v65h150V0H24" id="bH"/><path fill="#333" d="M123 10C108 53 80 86 19 72V37c35 8 53-11 59-39L3-190h52l48 148c12-52 28-100 44-148h51" id="bI"/><g id="aa"><use transform="matrix(0.07407407407407407,0,0,0.07407407407407407,0,0)" xlink:href="#bH"/><use transform="matrix(0.07407407407407407,0,0,0.07407407407407407,17.77777777777778,0)" xlink:href="#bg"/><use transform="matrix(0.07407407407407407,0,0,0.07407407407407407,25.185185185185183,0)" xlink:href="#bh"/><use transform="matrix(0.07407407407407407,0,0,0.07407407407407407,40,0)" xlink:href="#bw"/><use transform="matrix(0.07407407407407407,0,0,0.07407407407407407,63.7037037037037,0)" xlink:href="#bh"/><use transform="matrix(0.07407407407407407,0,0,0.07407407407407407,78.51851851851852,0)" xlink:href="#bf"/><use transform="matrix(0.07407407407407407,0,0,0.07407407407407407,94.74074074074073,0)" xlink:href="#bc"/><use transform="matrix(0.07407407407407407,0,0,0.07407407407407407,103.55555555555554,0)" xlink:href="#bd"/><use transform="matrix(0.07407407407407407,0,0,0.07407407407407407,118.37037037037035,0)" xlink:href="#bv"/><use transform="matrix(0.07407407407407407,0,0,0.07407407407407407,128.74074074074073,0)" xlink:href="#bI"/></g><path fill="#333" d="M231 0h-52l-39-155L100 0H48L-1-190h46L77-45c9-52 24-97 36-145h53l37 145 32-145h46" id="bJ"/><g id="ab"><use transform="matrix(0.07407407407407407,0,0,0.07407407407407407,0,0)" xlink:href="#br"/><use transform="matrix(0.07407407407407407,0,0,0.07407407407407407,8.814814814814815,0)" xlink:href="#bg"/><use transform="matrix(0.07407407407407407,0,0,0.07407407407407407,16.22222222222222,0)" xlink:href="#bm"/><use transform="matrix(0.07407407407407407,0,0,0.07407407407407407,32.44444444444444,0)" xlink:href="#bJ"/></g><path fill="#333" d="M4 7l51-268h42L46 7H4" id="bK"/><use transform="matrix(0.07407407407407407,0,0,0.07407407407407407,0,0)" xlink:href="#bK" id="ac"/><g id="ad"><use transform="matrix(0.07407407407407407,0,0,0.07407407407407407,0,0)" xlink:href="#bv"/><use transform="matrix(0.07407407407407407,0,0,0.07407407407407407,10.37037037037037,0)" xlink:href="#bh"/><use transform="matrix(0.07407407407407407,0,0,0.07407407407407407,25.185185185185183,0)" xlink:href="#bi"/><use transform="matrix(0.07407407407407407,0,0,0.07407407407407407,40,0)" xlink:href="#bm"/><use transform="matrix(0.07407407407407407,0,0,0.07407407407407407,56.22222222222222,0)" xlink:href="#bq"/><use transform="matrix(0.07407407407407407,0,0,0.07407407407407407,72.44444444444444,0)" xlink:href="#bv"/><use transform="matrix(0.07407407407407407,0,0,0.07407407407407407,82.81481481481481,0)" xlink:href="#bk"/><use transform="matrix(0.07407407407407407,0,0,0.07407407407407407,97.62962962962962,0)" xlink:href="#bh"/></g><g id="ae"><use transform="matrix(0.07407407407407407,0,0,0.07407407407407407,0,0)" xlink:href="#bh"/><use transform="matrix(0.07407407407407407,0,0,0.07407407407407407,14.814814814814813,0)" xlink:href="#bw"/><use transform="matrix(0.07407407407407407,0,0,0.07407407407407407,38.51851851851852,0)" xlink:href="#be"/><use transform="matrix(0.07407407407407407,0,0,0.07407407407407407,45.925925925925924,0)" xlink:href="#bi"/><use transform="matrix(0.07407407407407407,0,0,0.07407407407407407,60.74074074074074,0)" xlink:href="#bi"/><use transform="matrix(0.07407407407407407,0,0,0.07407407407407407,75.55555555555554,0)" xlink:href="#be"/><use transform="matrix(0.07407407407407407,0,0,0.07407407407407407,82.96296296296295,0)" xlink:href="#bm"/><use transform="matrix(0.07407407407407407,0,0,0.07407407407407407,99.18518518518516,0)" xlink:href="#bf"/></g><g id="af"><use transform="matrix(0.07407407407407407,0,0,0.07407407407407407,0,0)" xlink:href="#bj"/><use transform="matrix(0.07407407407407407,0,0,0.07407407407407407,17.77777777777778,0)" xlink:href="#bv"/><use transform="matrix(0.07407407407407407,0,0,0.07407407407407407,28.148148148148152,0)" xlink:href="#bm"/><use transform="matrix(0.07407407407407407,0,0,0.07407407407407407,44.37037037037037,0)" xlink:href="#bp"/><use transform="matrix(0.07407407407407407,0,0,0.07407407407407407,60.59259259259259,0)" xlink:href="#bq"/><use transform="matrix(0.07407407407407407,0,0,0.07407407407407407,76.81481481481481,0)" xlink:href="#bk"/><use transform="matrix(0.07407407407407407,0,0,0.07407407407407407,91.62962962962962,0)" xlink:href="#bc"/></g><g id="ag"><use transform="matrix(0.07407407407407407,0,0,0.07407407407407407,0,0)" xlink:href="#br"/><use transform="matrix(0.07407407407407407,0,0,0.07407407407407407,8.814814814814815,0)" xlink:href="#bg"/><use transform="matrix(0.07407407407407407,0,0,0.07407407407407407,16.22222222222222,0)" xlink:href="#bm"/><use transform="matrix(0.07407407407407407,0,0,0.07407407407407407,32.44444444444444,0)" xlink:href="#bJ"/></g></defs></g></svg>